<svg xmlns="http://www.w3.org/2000/svg" xmlns:xlink="http://www.w3.org/1999/xlink" width="150" zoomAndPan="magnify" viewBox="0 0 112.5 112.499997" height="150" preserveAspectRatio="xMidYMid meet" version="1.0"><defs><clipPath id="id1"><path d="M 33.75 33.75 L 78.75 33.75 L 78.75 78.75 L 33.75 78.75 Z M 33.75 33.75 " clip-rule="nonzero"/></clipPath></defs><path fill="#ffffff" d="M 58.410156 49.5 L 58.410156 53.160156 L 63.015625 53.160156 L 62.371094 58.164062 L 58.410156 58.164062 L 58.410156 69.632812 L 53.386719 69.632812 L 53.386719 58.164062 L 49.085938 58.164062 L 49.085938 53.160156 L 53.386719 53.160156 L 53.386719 49.5 C 53.386719 45.539062 56.589844 42.867188 60.554688 42.867188 C 62.296875 42.867188 63.394531 43.132812 63.394531 43.132812 L 63.394531 47.359375 L 60.554688 47.359375 C 59.378906 47.359375 58.410156 48.328125 58.410156 49.5 Z M 58.410156 49.5 " fill-opacity="1" fill-rule="nonzero"/><g clip-path="url(#id1)"><path fill="#ffffff" d="M 56.25 78.75 C 43.851562 78.75 33.75 68.664062 33.75 56.25 C 33.75 43.835938 43.851562 33.75 56.25 33.75 C 68.664062 33.75 78.75 43.851562 78.75 56.25 C 78.75 68.648438 68.664062 78.75 56.25 78.75 Z M 56.25 34.980469 C 44.515625 34.980469 34.980469 44.515625 34.980469 56.25 C 34.980469 67.984375 44.515625 77.519531 56.25 77.519531 C 67.984375 77.519531 77.519531 67.984375 77.519531 56.25 C 77.519531 44.515625 67.984375 34.980469 56.25 34.980469 Z M 56.25 34.980469 " fill-opacity="1" fill-rule="nonzero"/></g></svg>