<svg xmlns="http://www.w3.org/2000/svg" xmlns:xlink="http://www.w3.org/1999/xlink" width="150" zoomAndPan="magnify" viewBox="0 0 112.5 112.499997" height="150" preserveAspectRatio="xMidYMid meet" version="1.0"><defs><clipPath id="id1"><path d="M 33.75 34 L 78.75 34 L 78.75 78.75 L 33.75 78.75 Z M 33.75 34 " clip-rule="nonzero"/></clipPath></defs><g clip-path="url(#id1)"><path fill="#ffffff" d="M 56.25 34.171875 C 43.820312 34.171875 33.75 44.242188 33.75 56.671875 C 33.75 66.628906 40.191406 75.039062 49.132812 78.019531 C 50.257812 78.214844 50.679688 77.539062 50.679688 76.949219 C 50.679688 76.414062 50.652344 74.644531 50.652344 72.757812 C 45 73.800781 43.539062 71.382812 43.085938 70.117188 C 42.835938 69.46875 41.738281 67.472656 40.78125 66.9375 C 39.992188 66.515625 38.867188 65.476562 40.753906 65.445312 C 42.523438 65.417969 43.789062 67.078125 44.210938 67.753906 C 46.238281 71.15625 49.472656 70.199219 50.765625 69.609375 C 50.960938 68.148438 51.554688 67.164062 52.199219 66.601562 C 47.195312 66.039062 41.960938 64.097656 41.960938 55.492188 C 41.960938 53.042969 42.835938 51.019531 44.269531 49.445312 C 44.042969 48.882812 43.257812 46.574219 44.492188 43.480469 C 44.492188 43.480469 46.378906 42.890625 50.679688 45.789062 C 52.480469 45.28125 54.394531 45.027344 56.304688 45.027344 C 58.21875 45.027344 60.132812 45.28125 61.929688 45.789062 C 66.234375 42.863281 68.117188 43.480469 68.117188 43.480469 C 69.355469 46.574219 68.570312 48.882812 68.34375 49.445312 C 69.777344 51.019531 70.648438 53.015625 70.648438 55.492188 C 70.648438 64.125 65.390625 66.039062 60.382812 66.601562 C 61.199219 67.304688 61.902344 68.652344 61.902344 70.761719 C 61.902344 73.773438 61.875 76.191406 61.875 76.949219 C 61.875 77.539062 62.296875 78.242188 63.421875 78.019531 C 64.53125 77.644531 65.605469 77.183594 66.644531 76.644531 C 67.683594 76.101562 68.675781 75.480469 69.617188 74.785156 C 70.558594 74.085938 71.441406 73.324219 72.261719 72.488281 C 73.085938 71.652344 73.839844 70.761719 74.519531 69.808594 C 75.203125 68.859375 75.808594 67.859375 76.335938 66.8125 C 76.863281 65.765625 77.308594 64.6875 77.667969 63.570312 C 78.027344 62.457031 78.296875 61.320312 78.476562 60.164062 C 78.660156 59.007812 78.75 57.84375 78.75 56.671875 C 78.75 44.242188 68.679688 34.171875 56.25 34.171875 Z M 56.25 34.171875 " fill-opacity="1" fill-rule="nonzero"/></g></svg>