<svg xmlns="http://www.w3.org/2000/svg" xmlns:xlink="http://www.w3.org/1999/xlink" width="150" zoomAndPan="magnify" viewBox="0 0 112.5 112.499997" height="150" preserveAspectRatio="xMidYMid meet" version="1.0"><defs><clipPath id="3e840bc2f9"><path d="M 33.75 33.75 L 78.75 33.75 L 78.75 78.75 L 33.75 78.75 Z M 33.75 33.75 " clip-rule="nonzero"/></clipPath></defs><path fill="#ffffff" d="M 51.441406 64.355469 C 51.195312 64.355469 51.007812 64.34375 50.902344 64.335938 L 45.386719 64.335938 C 44.707031 64.335938 44.15625 63.78125 44.15625 63.101562 L 44.15625 48.839844 C 44.15625 48.160156 44.707031 47.605469 45.386719 47.605469 C 46.070312 47.605469 46.621094 48.160156 46.621094 48.839844 L 46.621094 61.867188 L 50.953125 61.867188 C 50.992188 61.867188 51.03125 61.871094 51.066406 61.875 C 51.644531 61.917969 53.363281 61.867188 54.292969 61.015625 C 54.773438 60.578125 55.007812 59.953125 55.007812 59.113281 C 55.007812 59.054688 55.011719 58.996094 55.019531 58.9375 C 55.019531 58.9375 55.136719 57.867188 54.457031 57.105469 C 53.875 56.460938 52.84375 56.164062 51.386719 56.15625 C 51.253906 56.15625 51.054688 56.160156 50.839844 56.097656 C 50.175781 56.078125 49.648438 55.535156 49.648438 54.867188 C 49.648438 54.1875 50.199219 53.632812 50.878906 53.632812 C 51.035156 53.632812 51.242188 53.632812 51.457031 53.691406 C 53.667969 53.699219 55.28125 54.304688 56.324219 55.5 C 57.601562 56.953125 57.519531 58.71875 57.472656 59.1875 C 57.453125 60.6875 56.929688 61.953125 55.949219 62.847656 C 54.496094 64.167969 52.460938 64.355469 51.441406 64.355469 Z M 51.441406 64.355469 " fill-opacity="1" fill-rule="nonzero"/><path fill="#ffffff" d="M 50.878906 56.101562 C 50.199219 56.101562 49.648438 55.546875 49.648438 54.867188 C 49.648438 54.1875 50.199219 53.636719 50.878906 53.636719 C 52.59375 53.636719 53.824219 53.273438 54.347656 52.617188 C 54.804688 52.042969 54.648438 51.332031 54.640625 51.300781 C 54.632812 51.261719 54.621094 51.203125 54.613281 51.167969 C 54.609375 51.167969 54.296875 50.074219 51.640625 50.074219 L 49.933594 50.074219 C 49.25 50.074219 48.699219 49.519531 48.699219 48.839844 C 48.699219 48.160156 49.25 47.609375 49.933594 47.609375 L 51.640625 47.609375 C 56.050781 47.609375 56.890625 50.089844 57.03125 50.707031 C 57.101562 50.976562 57.449219 52.628906 56.316406 54.105469 C 55.296875 55.429688 53.464844 56.101562 50.878906 56.101562 Z M 50.878906 56.101562 " fill-opacity="1" fill-rule="nonzero"/><path fill="#ffffff" d="M 65.003906 65.101562 C 64.917969 65.101562 64.867188 65.09375 64.855469 65.097656 C 60.246094 65.097656 58.925781 61.289062 58.882812 59.273438 C 58.882812 59.160156 58.824219 56.285156 60.65625 54.402344 C 61.667969 53.359375 63.027344 52.828125 64.683594 52.828125 C 66.488281 52.828125 67.910156 53.375 68.902344 54.453125 C 70.414062 56.097656 70.28125 58.285156 70.261719 58.53125 C 70.207031 59.167969 69.671875 59.660156 69.03125 59.660156 L 64.578125 59.660156 C 63.894531 59.660156 63.34375 59.109375 63.34375 58.429688 C 63.34375 57.746094 63.894531 57.195312 64.578125 57.195312 L 67.664062 57.195312 C 67.558594 56.832031 67.382812 56.4375 67.078125 56.113281 C 66.570312 55.570312 65.765625 55.292969 64.683594 55.292969 C 63.707031 55.292969 62.972656 55.5625 62.429688 56.113281 C 61.328125 57.242188 61.351562 59.195312 61.351562 59.21875 C 61.371094 59.785156 61.632812 62.632812 64.933594 62.632812 C 65.058594 62.644531 66.460938 62.679688 67.644531 61.492188 C 68.125 61.011719 68.90625 61.011719 69.386719 61.492188 C 69.871094 61.976562 69.871094 62.757812 69.386719 63.238281 C 67.648438 64.976562 65.570312 65.101562 65.003906 65.101562 Z M 65.003906 65.101562 " fill-opacity="1" fill-rule="nonzero"/><path fill="#ffffff" d="M 67.488281 51.101562 L 61.664062 51.101562 C 60.984375 51.101562 60.433594 50.550781 60.433594 49.867188 C 60.433594 49.1875 60.984375 48.636719 61.664062 48.636719 L 67.488281 48.636719 C 68.167969 48.636719 68.722656 49.1875 68.722656 49.867188 C 68.722656 50.550781 68.167969 51.101562 67.488281 51.101562 Z M 67.488281 51.101562 " fill-opacity="1" fill-rule="nonzero"/><g clip-path="url(#3e840bc2f9)"><path fill="#ffffff" d="M 56.261719 78.707031 C 43.859375 78.707031 33.773438 68.617188 33.773438 56.21875 C 33.773438 43.820312 43.859375 33.730469 56.261719 33.730469 C 68.660156 33.730469 78.75 43.820312 78.75 56.21875 C 78.75 61.9375 76.597656 67.386719 72.695312 71.566406 C 72.230469 72.0625 71.449219 72.085938 70.953125 71.625 C 70.457031 71.160156 70.429688 70.378906 70.894531 69.882812 C 74.371094 66.164062 76.28125 61.308594 76.28125 56.21875 C 76.28125 45.179688 67.300781 36.195312 56.261719 36.195312 C 45.21875 36.195312 36.238281 45.179688 36.238281 56.21875 C 36.238281 67.257812 45.21875 76.242188 56.261719 76.242188 C 59.675781 76.242188 63.046875 75.367188 66.007812 73.710938 C 66.601562 73.378906 67.355469 73.589844 67.6875 74.1875 C 68.019531 74.78125 67.804688 75.53125 67.210938 75.863281 C 63.882812 77.722656 60.09375 78.707031 56.261719 78.707031 Z M 56.261719 78.707031 " fill-opacity="1" fill-rule="nonzero"/></g></svg>