<svg xmlns="http://www.w3.org/2000/svg" xmlns:xlink="http://www.w3.org/1999/xlink" width="260" zoomAndPan="magnify" viewBox="0 0 194.87999 195.000001" height="260" preserveAspectRatio="xMidYMid meet" version="1.0"><defs><g/><clipPath id="id1"><path d="M 0.4375 0 L 194.324219 0 L 194.324219 194.003906 L 0.4375 194.003906 Z M 0.4375 0 " clip-rule="nonzero"/></clipPath><clipPath id="id2"><path d="M 0.4375 0 L 194.324219 0 L 194.324219 194.003906 L 0.4375 194.003906 Z M 0.4375 0 " clip-rule="nonzero"/></clipPath><clipPath id="id3"><path d="M 97.441406 0 C 43.867188 0 0.4375 43.429688 0.4375 97.003906 C 0.4375 150.574219 43.867188 194.003906 97.441406 194.003906 C 151.011719 194.003906 194.441406 150.574219 194.441406 97.003906 C 194.441406 43.429688 151.011719 0 97.441406 0 " clip-rule="nonzero"/></clipPath></defs><g clip-path="url(#id1)"><path fill="#054b23" d="M 97.441406 0 C 43.867188 0 0.4375 43.429688 0.4375 97.003906 C 0.4375 150.574219 43.867188 194.003906 97.441406 194.003906 C 151.011719 194.003906 194.441406 150.574219 194.441406 97.003906 C 194.441406 43.429688 151.011719 0 97.441406 0 " fill-opacity="1" fill-rule="nonzero"/></g><g clip-path="url(#id2)"><g clip-path="url(#id3)"><path stroke-linecap="butt" transform="matrix(0.746173, 0, 0, 0.746173, 0.437443, 0.00000994898)" fill="none" stroke-linejoin="miter" d="M 130.001888 -0.0000133333 C 58.203279 -0.0000133333 0.0000757436 58.20319 0.0000757436 130.001799 C 0.0000757436 201.795173 58.203279 259.998377 130.001888 259.998377 C 201.795263 259.998377 259.998466 201.795173 259.998466 130.001799 C 259.998466 58.20319 201.795263 -0.0000133333 130.001888 -0.0000133333 " stroke="#054b23" stroke-width="6" stroke-opacity="1" stroke-miterlimit="4"/></g></g><g fill="#ffffff" fill-opacity="1"><g transform="translate(32.299268, 92.994094)"><g><path d="M 103.738281 -60.363281 C 100.089844 -61.992188 96.054688 -62.535156 90.777344 -62.535156 C 88.375 -62.535156 86.046875 -62.769531 83.953125 -63.3125 L 83.175781 -63.546875 L 82.710938 -63.546875 C 82.398438 -63.546875 82.011719 -63.46875 81.625 -63.3125 L 80.847656 -63.003906 C 78.90625 -62.148438 75.960938 -61.992188 74.875 -61.839844 L 61.21875 -60.90625 C 56.640625 -60.519531 51.984375 -60.210938 47.40625 -59.976562 L 43.683594 -59.898438 L 39.957031 -59.976562 L 35.921875 -59.976562 L 34.761719 -59.820312 C 34.683594 -59.742188 34.527344 -59.742188 34.292969 -59.742188 L 33.984375 -59.667969 L 34.0625 -58.503906 L 34.292969 -58.425781 C 39.261719 -57.261719 44.769531 -56.640625 50.898438 -56.640625 C 54.855469 -56.640625 60.828125 -57.027344 68.820312 -57.726562 L 75.960938 -58.347656 L 53.691406 -23.355469 C 53.457031 -23.507812 52.683594 -23.820312 51.519531 -24.363281 C 50.664062 -24.597656 49.96875 -24.90625 49.269531 -25.292969 L 43.292969 -27.855469 C 42.363281 -28.242188 40.96875 -28.785156 39.105469 -29.640625 C 33.75 -31.890625 28.007812 -32.976562 21.878906 -32.976562 C 18.777344 -32.976562 15.828125 -32.742188 13.113281 -32.199219 C 4.34375 -30.570312 -4.035156 -26.457031 -10.320312 -20.328125 C -16.292969 -14.664062 -20.5625 -7.136719 -22.421875 0.851562 C -23.199219 4.113281 -23.585938 7.371094 -23.585938 10.707031 C -23.585938 15.828125 -22.65625 20.640625 -20.871094 25.0625 C -18.542969 30.957031 -15.128906 35.226562 -10.707031 37.941406 C -7.992188 39.648438 -5.199219 40.5 -2.25 40.5 C -0.386719 40.5 1.472656 40.191406 3.257812 39.570312 C 6.828125 38.40625 11.019531 35.921875 15.828125 32.121094 C 19.628906 29.097656 23.121094 25.914062 26.300781 22.5 C 32.121094 16.214844 37.941406 8.691406 43.761719 0.078125 L 51.675781 -11.636719 L 54.15625 -15.363281 L 56.71875 -19.007812 C 57.261719 -19.863281 57.414062 -19.941406 58.578125 -19.863281 C 59.742188 -19.628906 60.90625 -19.550781 61.917969 -19.628906 C 64.011719 -19.628906 66.027344 -20.09375 67.8125 -21.027344 C 69.285156 -21.726562 70.992188 -22.964844 72.933594 -24.75 L 75.183594 -26.691406 C 75.417969 -26.921875 75.648438 -27.078125 75.882812 -27.15625 L 75.105469 -26.300781 L 74.253906 -25.214844 C 71.226562 -21.800781 68.898438 -18.234375 67.269531 -14.429688 C 65.484375 -10.628906 64.320312 -6.515625 63.777344 -2.09375 C 63.699219 -1.941406 63.699219 -1.707031 63.699219 -1.320312 C 63.699219 -0.851562 63.855469 -0.386719 64.089844 0.15625 C 64.554688 0.777344 65.175781 1.164062 65.949219 1.398438 L 66.183594 1.398438 L 66.261719 1.164062 L 66.339844 1.007812 L 66.417969 0.929688 L 66.648438 0.464844 C 68.277344 -6.128906 71.691406 -12.957031 76.8125 -19.941406 C 77.511719 -20.949219 78.363281 -22.035156 79.375 -23.199219 L 82.167969 -26.535156 C 84.417969 -29.25 85.96875 -31.578125 86.667969 -33.441406 C 86.746094 -33.519531 86.746094 -33.75 86.746094 -34.0625 C 86.746094 -34.835938 86.511719 -35.378906 86.125 -35.691406 C 85.503906 -35.921875 84.960938 -36.078125 84.570312 -36.078125 C 84.183594 -36.078125 83.875 -36 83.640625 -35.769531 C 81.933594 -34.605469 80.070312 -33.054688 77.976562 -31.191406 C 76.039062 -29.484375 74.097656 -27.933594 72.15625 -26.535156 C 68.355469 -23.820312 64.785156 -22.191406 61.0625 -22.191406 C 60.132812 -22.191406 59.433594 -22.269531 58.890625 -22.34375 L 59.667969 -23.433594 L 60.363281 -24.519531 L 62.070312 -27.3125 L 63.699219 -29.949219 L 68.898438 -38.328125 L 74.949219 -48.027344 L 80.925781 -57.648438 C 81.3125 -58.269531 82.167969 -58.8125 82.789062 -58.890625 L 83.410156 -58.890625 C 86.277344 -59.121094 88.527344 -59.199219 90.003906 -59.277344 C 91.789062 -59.355469 93.03125 -59.433594 93.804688 -59.433594 C 97.140625 -59.433594 100.167969 -58.8125 102.804688 -57.570312 C 104.746094 -56.640625 105.753906 -55.320312 105.753906 -53.691406 C 105.753906 -52.527344 105.210938 -51.441406 104.203125 -50.433594 L 103.8125 -50.046875 L 104.433594 -49.96875 L 105.832031 -49.890625 C 106.296875 -49.890625 106.761719 -49.96875 107.152344 -50.121094 C 108.390625 -50.742188 109.167969 -51.597656 109.402344 -52.605469 C 109.476562 -52.992188 109.554688 -53.304688 109.554688 -53.457031 C 109.554688 -54.078125 109.324219 -54.777344 108.859375 -55.554688 C 107.382812 -57.804688 105.675781 -59.433594 103.738281 -60.363281 Z M 38.871094 -1.085938 C 33.207031 6.90625 27.542969 14.042969 21.800781 20.25 C 17.84375 24.597656 13.8125 28.242188 9.855469 31.191406 C 4.808594 34.835938 0.308594 36.621094 -3.800781 36.621094 C -8.300781 36.621094 -12.105469 34.371094 -15.128906 29.792969 C -19.476562 23.355469 -21.648438 16.683594 -21.648438 9.855469 C -21.648438 6.828125 -21.183594 3.800781 -20.328125 0.777344 C -17.769531 -7.914062 -11.328125 -15.75 -2.871094 -21.257812 C 5.507812 -26.769531 15.671875 -29.949219 25.835938 -29.949219 L 27 -29.949219 C 29.871094 -29.949219 33.207031 -29.328125 36.933594 -28.007812 C 39.183594 -27.15625 42.519531 -25.757812 46.785156 -23.742188 C 48.261719 -22.964844 49.96875 -22.191406 52.0625 -21.335938 C 47.949219 -14.585938 43.527344 -7.835938 38.871094 -1.085938 Z M 38.871094 -1.085938 "/></g></g></g><g fill="#ffffff" fill-opacity="1"><g transform="translate(103.293169, 129.369087)"><g><path d="M 71.554688 -17.15625 L 71.207031 -16.984375 C 70.863281 -16.898438 70.605469 -16.726562 70.347656 -16.550781 L 68.019531 -14.398438 L 65.605469 -12.070312 L 65.089844 -11.636719 L 64.570312 -11.121094 C 64.570312 -11.292969 64.570312 -11.378906 64.65625 -11.464844 L 64.65625 -11.8125 C 65 -14.828125 65.175781 -16.984375 65.175781 -18.363281 C 65.175781 -19.484375 65.089844 -20.605469 64.914062 -21.726562 C 64.3125 -25 62.328125 -27.585938 59.140625 -29.570312 L 59.828125 -30.347656 L 60.347656 -31.121094 C 60.863281 -31.898438 61.382812 -32.671875 61.984375 -33.277344 C 62.589844 -34.050781 63.019531 -34.742188 63.449219 -35.519531 L 63.621094 -35.777344 C 66.121094 -39.65625 68.019531 -42.933594 69.3125 -45.605469 C 70.691406 -48.277344 71.640625 -51.207031 72.15625 -54.3125 C 72.242188 -55.261719 72.328125 -55.863281 72.328125 -56.292969 C 72.328125 -59.3125 71.207031 -61.726562 69.226562 -62.847656 C 68.277344 -63.449219 67.242188 -63.707031 66.296875 -63.707031 C 65.863281 -63.707031 65.261719 -63.621094 64.484375 -63.363281 C 62.847656 -62.761719 61.292969 -61.292969 61.035156 -61.035156 C 57.5 -57.5 54.65625 -54.398438 52.414062 -51.554688 C 44.570312 -42.070312 36.984375 -31.726562 29.570312 -20.429688 C 37.070312 -32.671875 43.019531 -42.585938 47.5 -50.261719 C 48.535156 -51.984375 49.140625 -54.3125 49.742188 -56.640625 L 49.828125 -56.8125 C 49.914062 -57.414062 50 -57.761719 50 -57.933594 C 50 -58.707031 49.742188 -59.3125 49.140625 -59.914062 C 48.363281 -60.691406 47.5 -61.035156 46.378906 -61.035156 C 46.121094 -61.035156 45.691406 -60.949219 45.085938 -60.863281 C 44.3125 -60.605469 43.449219 -60.261719 42.5 -59.742188 L 42.414062 -59.65625 C 37.847656 -57.328125 33.277344 -54.140625 28.792969 -50 L 20.777344 -42.5 L 18.277344 -40.171875 C 12.84375 -35.085938 8.792969 -31.292969 6.035156 -28.792969 C 1.984375 -25.085938 -2.070312 -22.671875 -6.207031 -21.378906 C -7.242188 -21.035156 -8.105469 -20.863281 -8.878906 -20.863281 C -11.207031 -20.863281 -12.84375 -22.5 -13.621094 -25.691406 C -13.707031 -25.777344 -13.707031 -25.863281 -13.707031 -26.121094 C -13.964844 -27.15625 -14.050781 -27.84375 -14.050781 -28.277344 C -14.050781 -29.140625 -13.707031 -29.914062 -13.019531 -30.519531 L -12.757812 -30.863281 L -13.019531 -31.121094 C -13.363281 -31.378906 -13.707031 -31.640625 -14.136719 -31.726562 C -14.398438 -31.726562 -14.65625 -31.640625 -14.914062 -31.550781 C -15.429688 -31.378906 -15.691406 -30.949219 -15.777344 -30.257812 C -15.863281 -29.828125 -15.949219 -29.140625 -15.949219 -28.191406 C -15.949219 -22.585938 -12.84375 -19.050781 -8.277344 -19.050781 C -7.15625 -19.050781 -6.121094 -19.226562 -5 -19.570312 C -1.035156 -20.863281 3.191406 -23.535156 7.585938 -27.414062 C 10.34375 -29.828125 14.484375 -33.621094 20 -38.792969 L 22.414062 -41.121094 L 27.15625 -45.433594 C 32.242188 -50 36.554688 -53.535156 42.070312 -56.207031 C 42.328125 -56.382812 42.761719 -56.554688 43.363281 -56.8125 L 44.570312 -57.328125 L 45.519531 -57.675781 L 45.605469 -57.675781 L 44.570312 -55.777344 L 41.984375 -51.292969 L 37.5 -43.878906 L 34.742188 -39.3125 C 33.707031 -37.671875 33.105469 -36.8125 33.019531 -36.554688 C 31.378906 -33.964844 26.035156 -25 16.8125 -9.65625 L 14.484375 -5.691406 C 9.222656 3.191406 5.171875 10.515625 2.414062 18.449219 L 2.328125 18.621094 C 2.242188 18.878906 2.070312 19.226562 2.070312 19.65625 C 2.070312 20.257812 2.414062 20.691406 3.015625 20.949219 C 3.363281 21.121094 3.707031 21.207031 3.964844 21.207031 C 4.398438 21.207031 4.828125 20.863281 5.257812 20.171875 L 5.34375 20.085938 L 7.242188 17.15625 L 9.136719 14.3125 L 12.15625 9.828125 L 18.019531 0.949219 L 20.863281 -3.449219 C 26.640625 -12.414062 31.726562 -20.085938 36.121094 -26.550781 C 40.605469 -33.019531 45.347656 -39.140625 50.261719 -45.085938 C 52.242188 -47.414062 54.3125 -49.828125 56.554688 -52.242188 L 60.691406 -56.726562 L 62.15625 -58.277344 C 63.621094 -59.742188 65.261719 -60.519531 66.984375 -60.605469 C 67.328125 -59.65625 67.503906 -58.792969 67.503906 -58.019531 C 67.503906 -56.640625 66.984375 -54.742188 66.898438 -54.3125 C 64.914062 -46.378906 60.863281 -38.449219 54.742188 -30.605469 C 54.484375 -30.171875 54.054688 -29.914062 53.363281 -29.828125 C 48.277344 -28.878906 43.363281 -26.378906 38.621094 -22.242188 C 37.933594 -21.726562 37.5 -21.121094 37.328125 -20.429688 C 37.070312 -19.742188 36.984375 -19.136719 36.984375 -18.621094 C 36.984375 -18.191406 37.070312 -17.929688 37.242188 -17.757812 C 38.191406 -16.984375 39.914062 -16.636719 40.171875 -16.550781 C 40.261719 -16.464844 40.433594 -16.464844 40.605469 -16.464844 C 41.035156 -16.464844 41.640625 -16.8125 41.898438 -16.898438 L 42.070312 -16.984375 L 42.15625 -16.984375 C 47.933594 -19.3125 52.675781 -22.328125 56.207031 -25.949219 L 56.898438 -26.464844 C 57.15625 -26.640625 57.414062 -26.726562 57.675781 -26.640625 C 58.363281 -26.550781 58.621094 -25.691406 58.707031 -25.605469 C 58.882812 -25.171875 59.140625 -24.226562 59.570312 -22.671875 C 59.65625 -21.984375 59.742188 -20.949219 59.742188 -19.570312 C 59.742188 -18.277344 59.65625 -17.242188 59.570312 -16.550781 C 59.484375 -16.292969 59.3125 -15 58.96875 -12.84375 C 58.707031 -10.691406 57.933594 -8.792969 56.8125 -7.242188 C 55.691406 -5.691406 54.140625 -4.742188 52.328125 -4.398438 L 50.261719 -3.707031 C 50.175781 -3.621094 50.085938 -3.621094 50 -3.621094 L 49.65625 -3.449219 L 46.035156 -2.15625 L 42.5 -0.777344 C 35.171875 1.898438 29.65625 3.964844 26.035156 5.605469 C 17.070312 9.742188 10.691406 13.621094 5.605469 19.828125 C 3.191406 22.933594 1.550781 25.257812 0.601562 28.019531 C 0 29.65625 -0.257812 31.292969 -0.257812 32.847656 C -0.257812 37.933594 2.757812 41.726562 8.015625 43.535156 C 8.964844 43.964844 10.171875 44.140625 11.636719 44.140625 L 12.5 44.140625 C 12.929688 44.140625 13.191406 44.140625 13.363281 44.054688 C 15.171875 43.792969 16.8125 43.363281 18.449219 42.761719 C 24.050781 40.949219 28.621094 37.671875 34.398438 32.242188 C 44.914062 22.414062 54.054688 10.085938 61.898438 -4.742188 C 62.5 -6.035156 63.535156 -7.242188 65 -8.363281 C 65.777344 -8.964844 67.414062 -10.34375 69.914062 -12.585938 L 70.433594 -13.019531 C 71.207031 -13.792969 71.726562 -14.570312 72.15625 -15.34375 C 72.242188 -15.605469 72.328125 -15.691406 72.328125 -15.777344 C 72.328125 -16.035156 72.242188 -16.207031 72.15625 -16.464844 C 72.070312 -16.550781 72.070312 -16.636719 72.070312 -16.898438 L 71.984375 -17.414062 Z M 54.828125 -2.585938 C 46.121094 13.707031 35.863281 26.121094 23.019531 35.777344 C 19.3125 38.621094 15.085938 40.347656 10.34375 41.035156 L 10 41.035156 C 9.914062 41.121094 9.828125 41.121094 9.65625 41.121094 C 7.15625 41.121094 4.65625 39.484375 3.707031 36.8125 C 3.105469 35.519531 2.84375 34.050781 2.84375 32.585938 C 2.84375 30.257812 3.535156 27.84375 5 25.519531 C 7.84375 20.691406 11.8125 16.636719 16.984375 13.363281 C 25.949219 7.5 35.777344 3.015625 48.792969 -0.863281 L 53.277344 -2.414062 C 53.621094 -2.585938 54.226562 -2.757812 55 -3.015625 Z M 44.054688 -23.105469 C 45.949219 -24.398438 48.019531 -25.257812 50.261719 -25.691406 L 40 -19.226562 C 40.605469 -20.429688 41.898438 -21.726562 44.054688 -23.105469 Z M 44.054688 -23.105469 "/></g></g></g></svg>