<svg xmlns="http://www.w3.org/2000/svg" xmlns:xlink="http://www.w3.org/1999/xlink" width="150" zoomAndPan="magnify" viewBox="0 0 112.5 112.499997" height="150" preserveAspectRatio="xMidYMid meet" version="1.0"><defs><clipPath id="id1"><path d="M 33.75 33.75 L 78.75 33.75 L 78.75 78.75 L 33.75 78.75 Z M 33.75 33.75 " clip-rule="nonzero"/></clipPath></defs><path fill="#ffffff" d="M 62.125 43.324219 L 50.394531 43.324219 C 46.507812 43.324219 43.339844 46.488281 43.339844 50.375 L 43.339844 62.105469 C 43.339844 65.992188 46.507812 69.160156 50.394531 69.160156 L 62.125 69.160156 C 66.011719 69.160156 69.175781 65.992188 69.175781 62.105469 L 69.175781 50.394531 C 69.175781 46.488281 66.011719 43.324219 62.125 43.324219 Z M 66.960938 62.125 C 66.960938 64.800781 64.800781 66.960938 62.125 66.960938 L 50.394531 66.960938 C 47.71875 66.960938 45.539062 64.800781 45.539062 62.125 L 45.539062 50.394531 C 45.539062 47.71875 47.71875 45.539062 50.394531 45.539062 L 62.125 45.539062 C 64.800781 45.539062 66.960938 47.699219 66.960938 50.394531 Z M 66.960938 62.125 " fill-opacity="1" fill-rule="nonzero"/><path fill="#ffffff" d="M 64.894531 49.179688 C 64.894531 50.050781 64.191406 50.773438 63.300781 50.773438 C 62.429688 50.773438 61.710938 50.070312 61.710938 49.179688 C 61.710938 48.308594 62.410156 47.585938 63.300781 47.585938 C 64.191406 47.605469 64.894531 48.308594 64.894531 49.179688 Z M 64.894531 49.179688 " fill-opacity="1" fill-rule="nonzero"/><path fill="#ffffff" d="M 56.25 49.671875 C 52.628906 49.671875 49.671875 52.628906 49.671875 56.25 C 49.671875 59.871094 52.628906 62.828125 56.25 62.828125 C 59.871094 62.828125 62.828125 59.871094 62.828125 56.25 C 62.828125 52.628906 59.890625 49.671875 56.25 49.671875 Z M 56.25 60.609375 C 53.84375 60.609375 51.890625 58.65625 51.890625 56.25 C 51.890625 53.84375 53.84375 51.890625 56.25 51.890625 C 58.65625 51.890625 60.609375 53.84375 60.609375 56.25 C 60.609375 58.65625 58.65625 60.609375 56.25 60.609375 Z M 56.25 60.609375 " fill-opacity="1" fill-rule="nonzero"/><g clip-path="url(#id1)"><path fill="#ffffff" d="M 56.25 78.75 C 43.851562 78.75 33.75 68.664062 33.75 56.25 C 33.75 43.851562 43.851562 33.75 56.25 33.75 C 68.664062 33.75 78.75 43.851562 78.75 56.25 C 78.75 68.664062 68.664062 78.75 56.25 78.75 Z M 56.25 34.980469 C 44.515625 34.980469 34.980469 44.515625 34.980469 56.25 C 34.980469 67.984375 44.515625 77.519531 56.25 77.519531 C 67.984375 77.519531 77.519531 67.984375 77.519531 56.25 C 77.519531 44.515625 67.984375 34.980469 56.25 34.980469 Z M 56.25 34.980469 " fill-opacity="1" fill-rule="nonzero"/></g></svg>