<svg xmlns="http://www.w3.org/2000/svg" xmlns:xlink="http://www.w3.org/1999/xlink" width="150" zoomAndPan="magnify" viewBox="0 0 112.5 112.499997" height="150" preserveAspectRatio="xMidYMid meet" version="1.0"><defs><clipPath id="id1"><path d="M 33.75 33.75 L 78.75 33.75 L 78.75 78.75 L 33.75 78.75 Z M 33.75 33.75 " clip-rule="nonzero"/></clipPath></defs><g clip-path="url(#id1)"><path fill="#ffffff" d="M 72.226562 40.296875 C 68.015625 36.066406 62.414062 33.75 56.453125 33.75 C 44.167969 33.75 34.15625 43.761719 34.15625 56.046875 C 34.15625 59.984375 35.191406 63.808594 37.125 67.183594 L 33.976562 78.75 L 45.789062 75.644531 C 49.050781 77.421875 52.71875 78.367188 56.453125 78.367188 C 68.738281 78.367188 78.75 68.355469 78.75 56.070312 C 78.75 50.109375 76.433594 44.503906 72.226562 40.296875 Z M 56.453125 74.585938 C 53.121094 74.585938 49.859375 73.6875 47.003906 72 L 46.328125 71.59375 L 39.308594 73.441406 L 41.175781 66.601562 L 40.726562 65.902344 C 38.878906 62.953125 37.890625 59.535156 37.890625 56.046875 C 37.890625 45.832031 46.214844 37.507812 56.429688 37.507812 C 61.378906 37.507812 66.039062 39.441406 69.523438 42.953125 C 73.035156 46.460938 74.949219 51.121094 74.949219 56.070312 C 74.992188 66.285156 66.667969 74.585938 56.453125 74.585938 Z M 66.621094 60.726562 C 66.058594 60.457031 63.316406 59.109375 62.820312 58.90625 C 62.300781 58.726562 61.941406 58.636719 61.558594 59.175781 C 61.175781 59.738281 60.121094 60.996094 59.804688 61.359375 C 59.488281 61.738281 59.152344 61.785156 58.589844 61.492188 C 58.027344 61.222656 56.226562 60.613281 54.113281 58.726562 C 52.449219 57.238281 51.34375 55.417969 51.007812 54.855469 C 50.691406 54.292969 50.960938 54 51.253906 53.707031 C 51.503906 53.460938 51.816406 53.054688 52.085938 52.738281 C 52.359375 52.425781 52.46875 52.175781 52.648438 51.816406 C 52.828125 51.433594 52.738281 51.121094 52.605469 50.851562 C 52.46875 50.578125 51.34375 47.835938 50.894531 46.710938 C 50.445312 45.628906 49.972656 45.765625 49.636719 45.742188 C 49.296875 45.742188 48.9375 45.742188 48.554688 45.742188 C 48.171875 45.742188 47.585938 45.878906 47.070312 46.441406 C 46.574219 47.003906 45.136719 48.351562 45.136719 51.097656 C 45.136719 53.84375 47.136719 56.496094 47.40625 56.859375 C 47.675781 57.238281 51.34375 62.863281 56.925781 65.273438 C 58.253906 65.859375 59.289062 66.195312 60.097656 66.441406 C 61.425781 66.871094 62.640625 66.800781 63.609375 66.667969 C 64.6875 66.511719 66.914062 65.316406 67.363281 64.011719 C 67.835938 62.707031 67.835938 61.605469 67.679688 61.359375 C 67.523438 61.109375 67.183594 60.996094 66.621094 60.726562 Z M 66.621094 60.726562 " fill-opacity="1" fill-rule="nonzero"/></g></svg>