<svg xmlns="http://www.w3.org/2000/svg" xmlns:xlink="http://www.w3.org/1999/xlink" width="150" zoomAndPan="magnify" viewBox="0 0 112.5 112.499997" height="150" preserveAspectRatio="xMidYMid meet" version="1.0"><path fill="#ffffff" d="M 70.761719 41.769531 C 62.75 33.761719 49.726562 33.761719 41.738281 41.769531 C 34.855469 48.652344 33.75 59.398438 39.023438 67.496094 L 35.550781 75.894531 C 35.421875 76.199219 35.507812 76.546875 35.726562 76.765625 C 35.878906 76.914062 36.09375 77.003906 36.289062 77.003906 C 36.398438 77.003906 36.507812 76.980469 36.59375 76.9375 L 44.996094 73.464844 C 53.089844 78.738281 63.835938 77.652344 70.71875 70.773438 C 78.75 62.804688 78.75 49.78125 70.761719 41.769531 Z M 69.609375 69.664062 C 63.1875 76.089844 53.070312 77.046875 45.582031 71.921875 C 45.449219 71.835938 45.277344 71.792969 45.125 71.792969 C 45.015625 71.792969 44.90625 71.8125 44.820312 71.859375 L 37.808594 74.746094 L 40.695312 67.734375 C 40.804688 67.472656 40.761719 67.191406 40.609375 66.972656 C 35.488281 59.460938 36.421875 49.347656 42.867188 42.921875 C 50.246094 35.539062 62.253906 35.539062 69.609375 42.921875 C 76.992188 50.300781 76.992188 62.304688 69.609375 69.664062 Z M 69.609375 69.664062 " fill-opacity="1" fill-rule="nonzero"/><path fill="#ffffff" d="M 65.53125 59.941406 C 64.597656 59.007812 63.054688 59.007812 62.121094 59.941406 L 61.273438 60.785156 C 60.820312 61.15625 58.800781 61.265625 55 57.464844 C 51.203125 53.667969 51.3125 51.648438 51.636719 51.214844 L 52.503906 50.34375 C 52.960938 49.890625 53.222656 49.28125 53.222656 48.628906 C 53.222656 47.980469 52.960938 47.371094 52.503906 46.914062 L 50.507812 44.917969 C 49.640625 44.050781 48.273438 43.964844 47.296875 44.746094 C 46.210938 45.636719 44.886719 47.199219 44.777344 49.628906 C 44.605469 52.949219 46.753906 56.878906 51.179688 61.285156 C 55.4375 65.539062 59.234375 67.691406 62.46875 67.691406 C 62.597656 67.691406 62.730469 67.691406 62.859375 67.667969 C 65.292969 67.539062 66.832031 66.214844 67.699219 65.128906 C 68.460938 64.171875 68.375 62.804688 67.527344 61.960938 C 66.941406 61.371094 66.160156 60.589844 65.53125 59.941406 Z M 66.441406 64.128906 C 65.769531 64.953125 64.597656 65.976562 62.773438 66.0625 C 59.972656 66.214844 56.347656 64.171875 52.308594 60.136719 C 48.292969 56.121094 46.230469 52.496094 46.382812 49.695312 C 46.46875 47.847656 47.492188 46.65625 48.316406 46.003906 C 48.46875 45.894531 48.640625 45.832031 48.816406 45.832031 C 49.03125 45.832031 49.226562 45.917969 49.378906 46.070312 L 51.375 48.066406 C 51.679688 48.371094 51.679688 48.890625 51.375 49.195312 L 50.507812 50.0625 C 50.246094 50.324219 48.097656 52.820312 53.871094 58.59375 C 59.648438 64.367188 62.121094 62.21875 62.402344 61.960938 L 63.273438 61.089844 C 63.578125 60.785156 64.097656 60.785156 64.402344 61.089844 C 65.03125 61.71875 65.8125 62.480469 66.375 63.109375 C 66.660156 63.390625 66.679688 63.824219 66.441406 64.128906 Z M 66.441406 64.128906 " fill-opacity="1" fill-rule="nonzero"/></svg>