<svg xmlns="http://www.w3.org/2000/svg" xmlns:xlink="http://www.w3.org/1999/xlink" width="150" zoomAndPan="magnify" viewBox="0 0 112.5 112.499997" height="150" preserveAspectRatio="xMidYMid meet" version="1.0"><defs><clipPath id="id1"><path d="M 33.75 33.75 L 78.75 33.75 L 78.75 78.75 L 33.75 78.75 Z M 33.75 33.75 " clip-rule="nonzero"/></clipPath></defs><g clip-path="url(#id1)"><path fill="#ffffff" d="M 54.839844 33.796875 C 54.367188 33.792969 53.960938 34.132812 53.878906 34.597656 L 53.347656 37.503906 C 52.890625 37.652344 52.449219 37.832031 52.019531 38.042969 L 49.628906 36.320312 C 49.246094 36.042969 48.714844 36.082031 48.378906 36.417969 L 46.304688 38.460938 C 45.96875 38.792969 45.921875 39.320312 46.191406 39.707031 L 47.867188 42.136719 C 47.648438 42.566406 47.460938 43.003906 47.3125 43.457031 L 44.402344 43.929688 C 43.933594 44 43.589844 44.402344 43.585938 44.878906 L 43.566406 47.796875 C 43.5625 48.265625 43.902344 48.671875 44.363281 48.757812 L 47.285156 49.289062 C 47.425781 49.742188 47.609375 50.175781 47.824219 50.605469 L 46.085938 53.003906 C 45.808594 53.390625 45.847656 53.921875 46.183594 54.257812 L 48.230469 56.332031 C 48.5625 56.664062 49.085938 56.714844 49.472656 56.445312 L 51.933594 54.75 C 52.359375 54.96875 52.796875 55.148438 53.242188 55.292969 L 53.746094 58.242188 C 53.824219 58.707031 54.222656 59.050781 54.699219 59.054688 L 57.609375 59.070312 C 58.089844 59.074219 58.496094 58.726562 58.574219 58.261719 L 59.070312 55.316406 C 59.515625 55.171875 59.949219 55 60.371094 54.785156 L 62.8125 56.519531 C 63.199219 56.792969 63.722656 56.75 64.054688 56.417969 L 66.132812 54.371094 C 66.472656 54.039062 66.515625 53.507812 66.238281 53.117188 L 64.507812 50.6875 C 64.726562 50.265625 64.90625 49.835938 65.054688 49.394531 L 68.011719 48.894531 C 68.476562 48.8125 68.816406 48.410156 68.820312 47.9375 L 68.835938 45.023438 C 68.839844 44.550781 68.5 44.144531 68.027344 44.066406 L 65.097656 43.566406 C 64.953125 43.121094 64.773438 42.683594 64.566406 42.253906 L 66.289062 39.820312 C 66.566406 39.4375 66.523438 38.914062 66.191406 38.574219 L 64.140625 36.5 C 63.804688 36.167969 63.273438 36.117188 62.886719 36.394531 L 60.480469 38.105469 C 60.054688 37.886719 59.621094 37.707031 59.179688 37.558594 L 58.707031 34.632812 C 58.632812 34.164062 58.230469 33.816406 57.75 33.8125 Z M 55.644531 35.746094 L 56.917969 35.753906 L 57.339844 38.382812 C 57.402344 38.765625 57.6875 39.070312 58.058594 39.167969 C 58.773438 39.347656 59.457031 39.640625 60.105469 40.03125 C 60.433594 40.238281 60.855469 40.222656 61.171875 40 L 63.339844 38.460938 L 64.234375 39.363281 L 62.675781 41.550781 C 62.453125 41.867188 62.433594 42.28125 62.632812 42.609375 C 63.015625 43.257812 63.296875 43.949219 63.464844 44.660156 C 63.554688 45.039062 63.863281 45.328125 64.25 45.398438 L 66.890625 45.839844 L 66.882812 47.113281 L 64.214844 47.5625 C 63.835938 47.625 63.527344 47.910156 63.433594 48.28125 C 63.253906 48.988281 62.96875 49.671875 62.578125 50.308594 C 62.378906 50.644531 62.394531 51.066406 62.621094 51.378906 L 64.175781 53.570312 L 63.273438 54.464844 L 61.070312 52.898438 C 60.753906 52.675781 60.339844 52.660156 60.007812 52.855469 C 59.363281 53.242188 58.679688 53.515625 57.96875 53.6875 C 57.589844 53.78125 57.304688 54.085938 57.242188 54.472656 L 56.792969 57.121094 L 55.527344 57.109375 L 55.078125 54.453125 C 55.011719 54.074219 54.726562 53.765625 54.347656 53.671875 C 53.644531 53.5 52.957031 53.210938 52.308594 52.824219 C 51.984375 52.625 51.570312 52.636719 51.253906 52.855469 L 49.042969 54.382812 L 48.144531 53.476562 L 49.707031 51.320312 C 49.933594 51.003906 49.953125 50.582031 49.75 50.25 C 49.367188 49.601562 49.085938 48.910156 48.910156 48.195312 C 48.820312 47.824219 48.519531 47.539062 48.140625 47.464844 L 45.515625 46.992188 L 45.527344 45.714844 L 48.140625 45.292969 C 48.523438 45.234375 48.835938 44.949219 48.929688 44.574219 C 49.113281 43.855469 49.398438 43.164062 49.792969 42.519531 C 49.992188 42.191406 49.984375 41.773438 49.761719 41.460938 L 48.253906 39.273438 L 49.160156 38.378906 L 51.308594 39.925781 C 51.617188 40.152344 52.035156 40.171875 52.371094 39.980469 C 53.023438 39.589844 53.71875 39.3125 54.4375 39.136719 C 54.8125 39.050781 55.097656 38.746094 55.164062 38.371094 Z M 56.191406 41.609375 C 54.941406 41.601562 53.6875 42.066406 52.734375 43.011719 C 50.828125 44.894531 50.8125 47.996094 52.695312 49.90625 C 54.582031 51.8125 57.6875 51.828125 59.589844 49.945312 C 61.496094 48.0625 61.511719 44.957031 59.628906 43.050781 C 58.6875 42.097656 57.4375 41.617188 56.191406 41.609375 Z M 56.183594 43.539062 C 56.929688 43.542969 57.675781 43.835938 58.246094 44.417969 C 59.394531 45.574219 59.382812 47.417969 58.226562 48.558594 C 57.066406 49.707031 55.226562 49.699219 54.078125 48.539062 C 52.933594 47.378906 52.945312 45.539062 54.101562 44.394531 C 54.683594 43.820312 55.429688 43.535156 56.183594 43.539062 Z M 45.921875 59.070312 C 43.382812 59.070312 42.214844 59.675781 40.953125 60.160156 C 40.953125 60.164062 40.953125 60.164062 40.953125 60.164062 C 38.535156 61.105469 34.398438 63.058594 34.398438 63.058594 C 33.910156 63.285156 33.703125 63.867188 33.929688 64.351562 C 34.164062 64.839844 34.742188 65.046875 35.230469 64.820312 C 35.230469 64.820312 39.394531 62.859375 41.65625 61.976562 C 43.054688 61.433594 43.660156 61.011719 45.921875 61.011719 C 50.90625 61.011719 50.703125 63.175781 52.808594 64.414062 C 52.835938 64.433594 52.871094 64.453125 52.90625 64.464844 C 55.515625 65.632812 58.316406 65.871094 60.574219 65.871094 C 61.574219 65.871094 62.203125 66.105469 62.546875 66.363281 C 62.882812 66.625 63.003906 66.894531 63.003906 67.328125 C 63.003906 67.84375 62.875 68.085938 62.539062 68.332031 C 62.203125 68.574219 61.558594 68.789062 60.574219 68.789062 L 55.472656 68.789062 C 53.332031 68.789062 49.644531 67.847656 49.644531 67.847656 C 49.3125 67.753906 48.949219 67.855469 48.703125 68.101562 C 48.457031 68.347656 48.363281 68.707031 48.453125 69.042969 C 48.546875 69.378906 48.8125 69.640625 49.152344 69.730469 C 49.152344 69.730469 52.808594 70.730469 55.472656 70.730469 L 60.574219 70.730469 C 61.566406 70.730469 62.429688 70.570312 63.148438 70.210938 C 63.242188 70.183594 63.335938 70.144531 63.414062 70.085938 L 72.632812 64.039062 C 74.019531 63.238281 74.964844 63.011719 75.519531 63.019531 C 76.074219 63.03125 76.261719 63.199219 76.429688 63.410156 C 76.675781 63.730469 76.691406 63.851562 76.53125 64.21875 C 76.367188 64.59375 75.894531 65.164062 75.039062 65.757812 C 75.039062 65.757812 75.039062 65.757812 75.035156 65.757812 C 73.980469 66.496094 62.175781 74.1875 60.8125 74.960938 C 59.785156 75.546875 58.96875 76.160156 58.039062 76.421875 C 57.109375 76.679688 56.011719 76.679688 54.195312 75.816406 C 52.984375 75.234375 47.828125 72.59375 46.160156 71.746094 C 45.230469 71.273438 44.4375 71.007812 43.628906 71.054688 C 42.816406 71.101562 42.128906 71.445312 41.417969 71.894531 C 41.414062 71.894531 41.410156 71.898438 41.410156 71.902344 L 39.003906 73.4375 C 38.699219 73.621094 38.519531 73.953125 38.53125 74.308594 C 38.542969 74.660156 38.75 74.980469 39.0625 75.140625 C 39.382812 75.300781 39.757812 75.277344 40.050781 75.074219 L 42.445312 73.542969 C 43.066406 73.152344 43.414062 73.011719 43.734375 72.996094 C 44.050781 72.976562 44.488281 73.078125 45.28125 73.480469 C 46.9375 74.320312 52.015625 76.925781 53.363281 77.566406 C 55.476562 78.578125 57.1875 78.675781 58.558594 78.292969 C 59.929688 77.910156 60.90625 77.144531 61.773438 76.652344 C 63.648438 75.582031 74.792969 68.292969 76.148438 67.351562 C 77.175781 66.636719 77.933594 65.886719 78.316406 64.992188 C 78.699219 64.09375 78.574219 63 77.964844 62.21875 C 77.964844 62.21875 77.964844 62.21875 77.964844 62.214844 C 77.480469 61.601562 76.628906 61.101562 75.550781 61.078125 C 74.941406 61.066406 74.261719 61.207031 73.507812 61.484375 C 73.367188 61.296875 73.152344 61.054688 72.859375 60.839844 C 72.296875 60.421875 71.394531 60.039062 70.171875 60.039062 C 69.546875 60.039062 69.035156 60.183594 68.625 60.355469 C 68.039062 59.796875 67.003906 59.085938 65.496094 59.085938 C 64.273438 59.085938 63.125 59.496094 62.328125 59.96875 C 62.179688 60.054688 61.824219 60.28125 61.214844 60.660156 C 60.609375 61.039062 59.816406 61.527344 59.035156 62.019531 C 57.785156 62.796875 57.011719 63.28125 56.5625 63.5625 C 55.609375 63.375 54.65625 63.105469 53.757812 62.710938 C 52.988281 62.214844 51.511719 59.070312 45.921875 59.070312 Z M 65.496094 61.03125 C 66.109375 61.03125 66.550781 61.1875 66.863281 61.371094 L 62.367188 64.15625 C 61.832031 64.003906 61.230469 63.929688 60.574219 63.929688 C 60.292969 63.929688 59.988281 63.910156 59.695312 63.898438 C 59.875 63.785156 59.875 63.785156 60.0625 63.671875 C 60.84375 63.179688 61.632812 62.6875 62.246094 62.308594 C 62.851562 61.929688 63.351562 61.625 63.316406 61.644531 C 63.777344 61.371094 64.773438 61.03125 65.496094 61.03125 Z M 70.171875 61.984375 C 70.960938 61.984375 71.386719 62.1875 71.644531 62.363281 C 71.628906 62.371094 71.621094 62.378906 71.605469 62.390625 L 64.886719 66.792969 C 64.796875 66.25 64.574219 65.730469 64.214844 65.296875 L 68.914062 62.386719 L 68.917969 62.378906 C 68.953125 62.359375 69.765625 61.984375 70.171875 61.984375 Z M 70.171875 61.984375 " fill-opacity="1" fill-rule="nonzero"/></g></svg>