<svg xmlns="http://www.w3.org/2000/svg" xmlns:xlink="http://www.w3.org/1999/xlink" width="150" zoomAndPan="magnify" viewBox="0 0 112.5 112.499997" height="150" preserveAspectRatio="xMidYMid meet" version="1.0"><defs><clipPath id="id1"><path d="M 33.75 38.25 L 76 38.25 L 76 69 L 33.75 69 Z M 33.75 38.25 " clip-rule="nonzero"/></clipPath><clipPath id="id2"><path d="M 49.855469 67 L 51.039062 67 L 51.039062 74.234375 L 49.855469 74.234375 Z M 49.855469 67 " clip-rule="nonzero"/></clipPath><clipPath id="id3"><path d="M 58.027344 67 L 59.210938 67 L 59.210938 74.234375 L 58.027344 74.234375 Z M 58.027344 67 " clip-rule="nonzero"/></clipPath><clipPath id="id4"><path d="M 46.183594 73.078125 L 62.882812 73.078125 L 62.882812 74.234375 L 46.183594 74.234375 Z M 46.183594 73.078125 " clip-rule="nonzero"/></clipPath><clipPath id="id5"><path d="M 33.75 61 L 65 61 L 65 63 L 33.75 63 Z M 33.75 61 " clip-rule="nonzero"/></clipPath><clipPath id="id6"><path d="M 63 52 L 78.75 52 L 78.75 54 L 63 54 Z M 63 52 " clip-rule="nonzero"/></clipPath><clipPath id="id7"><path d="M 63 69 L 78.75 69 L 78.75 71 L 63 71 Z M 63 69 " clip-rule="nonzero"/></clipPath><clipPath id="id8"><path d="M 63.828125 48.445312 L 78.75 48.445312 L 78.75 74.234375 L 63.828125 74.234375 Z M 63.828125 48.445312 " clip-rule="nonzero"/></clipPath></defs><g clip-path="url(#id1)"><path fill="#000000" d="M 64.417969 68.097656 L 35.289062 68.097656 C 34.441406 68.097656 33.75 67.40625 33.75 66.558594 L 33.75 39.800781 C 33.75 38.953125 34.441406 38.261719 35.289062 38.261719 L 73.820312 38.261719 C 74.671875 38.261719 75.363281 38.953125 75.363281 39.800781 L 75.363281 49.066406 C 75.363281 49.359375 75.125 49.597656 74.832031 49.597656 C 74.539062 49.597656 74.300781 49.359375 74.300781 49.066406 L 74.300781 39.800781 C 74.300781 39.539062 74.085938 39.324219 73.820312 39.324219 L 35.289062 39.324219 C 35.027344 39.324219 34.8125 39.539062 34.8125 39.800781 L 34.8125 66.558594 C 34.8125 66.820312 35.027344 67.035156 35.289062 67.035156 L 64.417969 67.035156 C 64.710938 67.035156 64.949219 67.273438 64.949219 67.566406 C 64.949219 67.859375 64.710938 68.097656 64.417969 68.097656 " fill-opacity="1" fill-rule="nonzero"/></g><path fill="#000000" d="M 54.503906 63.761719 C 55.09375 63.761719 55.570312 64.238281 55.570312 64.824219 C 55.570312 65.414062 55.09375 65.890625 54.503906 65.890625 C 53.914062 65.890625 53.4375 65.414062 53.4375 64.824219 C 53.4375 64.238281 53.914062 63.761719 54.503906 63.761719 " fill-opacity="1" fill-rule="nonzero"/><g clip-path="url(#id2)"><path fill="#000000" d="M 50.484375 74.234375 C 50.1875 74.234375 49.949219 73.996094 49.949219 73.703125 L 49.949219 67.566406 C 49.949219 67.273438 50.1875 67.035156 50.484375 67.035156 C 50.777344 67.035156 51.015625 67.273438 51.015625 67.566406 L 51.015625 73.703125 C 51.015625 73.996094 50.777344 74.234375 50.484375 74.234375 " fill-opacity="1" fill-rule="nonzero"/></g><g clip-path="url(#id3)"><path fill="#000000" d="M 58.628906 74.234375 C 58.335938 74.234375 58.097656 73.996094 58.097656 73.703125 L 58.097656 67.566406 C 58.097656 67.273438 58.335938 67.035156 58.628906 67.035156 C 58.921875 67.035156 59.160156 67.273438 59.160156 67.566406 L 59.160156 73.703125 C 59.160156 73.996094 58.921875 74.234375 58.628906 74.234375 " fill-opacity="1" fill-rule="nonzero"/></g><g clip-path="url(#id4)"><path fill="#000000" d="M 62.304688 74.234375 L 46.808594 74.234375 C 46.515625 74.234375 46.277344 73.996094 46.277344 73.703125 C 46.277344 73.410156 46.515625 73.171875 46.808594 73.171875 L 62.304688 73.171875 C 62.597656 73.171875 62.835938 73.410156 62.835938 73.703125 C 62.835938 73.996094 62.597656 74.234375 62.304688 74.234375 " fill-opacity="1" fill-rule="nonzero"/></g><g clip-path="url(#id5)"><path fill="#000000" d="M 64.417969 62.621094 L 34.28125 62.621094 C 33.988281 62.621094 33.75 62.382812 33.75 62.089844 C 33.75 61.796875 33.988281 61.558594 34.28125 61.558594 L 64.417969 61.558594 C 64.710938 61.558594 64.949219 61.796875 64.949219 62.089844 C 64.949219 62.382812 64.710938 62.621094 64.417969 62.621094 " fill-opacity="1" fill-rule="nonzero"/></g><path fill="#000000" d="M 71.304688 69.414062 L 71.332031 69.414062 L 71.332031 70.5 L 71.304688 70.5 L 71.304688 69.414062 " fill-opacity="1" fill-rule="nonzero"/><path fill="#000000" d="M 38.300781 42.457031 C 38.105469 42.457031 37.945312 42.617188 37.945312 42.8125 L 37.945312 46.035156 C 37.945312 46.230469 38.105469 46.390625 38.300781 46.390625 L 48.976562 46.390625 C 49.171875 46.390625 49.332031 46.230469 49.332031 46.035156 L 49.332031 42.8125 C 49.332031 42.617188 49.171875 42.457031 48.976562 42.457031 Z M 48.976562 47.453125 L 38.300781 47.453125 C 37.519531 47.453125 36.882812 46.816406 36.882812 46.035156 L 36.882812 42.8125 C 36.882812 42.03125 37.519531 41.394531 38.300781 41.394531 L 48.976562 41.394531 C 49.757812 41.394531 50.394531 42.03125 50.394531 42.8125 L 50.394531 46.035156 C 50.394531 46.816406 49.757812 47.453125 48.976562 47.453125 " fill-opacity="1" fill-rule="nonzero"/><path fill="#000000" d="M 38.300781 50.953125 C 38.105469 50.953125 37.945312 51.113281 37.945312 51.308594 L 37.945312 54.53125 C 37.945312 54.726562 38.105469 54.886719 38.300781 54.886719 L 42.753906 54.886719 C 42.949219 54.886719 43.105469 54.726562 43.105469 54.53125 L 43.105469 51.308594 C 43.105469 51.113281 42.949219 50.953125 42.753906 50.953125 Z M 42.753906 55.949219 L 38.300781 55.949219 C 37.519531 55.949219 36.882812 55.316406 36.882812 54.53125 L 36.882812 51.308594 C 36.882812 50.527344 37.519531 49.890625 38.300781 49.890625 L 42.753906 49.890625 C 43.535156 49.890625 44.171875 50.527344 44.171875 51.308594 L 44.171875 54.53125 C 44.171875 55.316406 43.535156 55.949219 42.753906 55.949219 " fill-opacity="1" fill-rule="nonzero"/><path fill="#000000" d="M 46.792969 50.953125 C 46.597656 50.953125 46.4375 51.113281 46.4375 51.308594 L 46.4375 54.53125 C 46.4375 54.726562 46.597656 54.886719 46.792969 54.886719 L 51.242188 54.886719 C 51.4375 54.886719 51.597656 54.726562 51.597656 54.53125 L 51.597656 51.308594 C 51.597656 51.113281 51.4375 50.953125 51.242188 50.953125 Z M 51.242188 55.949219 L 46.792969 55.949219 C 46.011719 55.949219 45.375 55.316406 45.375 54.53125 L 45.375 51.308594 C 45.375 50.527344 46.011719 49.890625 46.792969 49.890625 L 51.242188 49.890625 C 52.023438 49.890625 52.660156 50.527344 52.660156 51.308594 L 52.660156 54.53125 C 52.660156 55.316406 52.023438 55.949219 51.242188 55.949219 " fill-opacity="1" fill-rule="nonzero"/><path fill="#000000" d="M 55.28125 50.953125 C 55.085938 50.953125 54.929688 51.113281 54.929688 51.308594 L 54.929688 54.53125 C 54.929688 54.726562 55.085938 54.886719 55.28125 54.886719 L 59.734375 54.886719 C 59.929688 54.886719 60.089844 54.726562 60.089844 54.53125 L 60.089844 51.308594 C 60.089844 51.113281 59.929688 50.953125 59.734375 50.953125 Z M 59.734375 55.949219 L 55.28125 55.949219 C 54.5 55.949219 53.863281 55.316406 53.863281 54.53125 L 53.863281 51.308594 C 53.863281 50.527344 54.5 49.890625 55.28125 49.890625 L 59.734375 49.890625 C 60.515625 49.890625 61.152344 50.527344 61.152344 51.308594 L 61.152344 54.53125 C 61.152344 55.316406 60.515625 55.949219 59.734375 55.949219 " fill-opacity="1" fill-rule="nonzero"/><path fill="#000000" d="M 60.621094 42.800781 L 52.152344 42.800781 C 51.859375 42.800781 51.621094 42.5625 51.621094 42.269531 C 51.621094 41.972656 51.859375 41.738281 52.152344 41.738281 L 60.621094 41.738281 C 60.914062 41.738281 61.152344 41.972656 61.152344 42.269531 C 61.152344 42.5625 60.914062 42.800781 60.621094 42.800781 " fill-opacity="1" fill-rule="nonzero"/><path fill="#000000" d="M 60.621094 44.957031 L 52.152344 44.957031 C 51.859375 44.957031 51.621094 44.71875 51.621094 44.425781 C 51.621094 44.128906 51.859375 43.890625 52.152344 43.890625 L 60.621094 43.890625 C 60.914062 43.890625 61.152344 44.128906 61.152344 44.425781 C 61.152344 44.71875 60.914062 44.957031 60.621094 44.957031 " fill-opacity="1" fill-rule="nonzero"/><path fill="#000000" d="M 60.621094 47.109375 L 52.152344 47.109375 C 51.859375 47.109375 51.621094 46.875 51.621094 46.578125 C 51.621094 46.285156 51.859375 46.046875 52.152344 46.046875 L 60.621094 46.046875 C 60.914062 46.046875 61.152344 46.285156 61.152344 46.578125 C 61.152344 46.875 60.914062 47.109375 60.621094 47.109375 " fill-opacity="1" fill-rule="nonzero"/><g clip-path="url(#id6)"><path fill="#000000" d="M 78.21875 53.488281 L 64.417969 53.488281 C 64.125 53.488281 63.886719 53.25 63.886719 52.957031 C 63.886719 52.664062 64.125 52.425781 64.417969 52.425781 L 78.21875 52.425781 C 78.511719 52.425781 78.75 52.664062 78.75 52.957031 C 78.75 53.25 78.511719 53.488281 78.21875 53.488281 " fill-opacity="1" fill-rule="nonzero"/></g><g clip-path="url(#id7)"><path fill="#000000" d="M 78.21875 70.34375 L 64.417969 70.34375 C 64.125 70.34375 63.886719 70.105469 63.886719 69.8125 C 63.886719 69.519531 64.125 69.28125 64.417969 69.28125 L 78.21875 69.28125 C 78.511719 69.28125 78.75 69.519531 78.75 69.8125 C 78.75 70.105469 78.511719 70.34375 78.21875 70.34375 " fill-opacity="1" fill-rule="nonzero"/></g><path fill="#000000" d="M 69.707031 56.503906 C 69.511719 56.503906 69.351562 56.660156 69.351562 56.855469 L 69.351562 59.09375 C 69.351562 59.289062 69.511719 59.449219 69.707031 59.449219 L 72.929688 59.449219 C 73.125 59.449219 73.285156 59.289062 73.285156 59.09375 L 73.285156 56.855469 C 73.285156 56.660156 73.125 56.503906 72.929688 56.503906 Z M 72.929688 60.511719 L 69.707031 60.511719 C 68.925781 60.511719 68.289062 59.875 68.289062 59.09375 L 68.289062 56.855469 C 68.289062 56.074219 68.925781 55.441406 69.707031 55.441406 L 72.929688 55.441406 C 73.710938 55.441406 74.347656 56.074219 74.347656 56.855469 L 74.347656 59.09375 C 74.347656 59.875 73.710938 60.511719 72.929688 60.511719 " fill-opacity="1" fill-rule="nonzero"/><path fill="#000000" d="M 75.925781 67.332031 L 66.710938 67.332031 C 66.417969 67.332031 66.179688 67.09375 66.179688 66.800781 C 66.179688 66.503906 66.417969 66.269531 66.710938 66.269531 L 75.925781 66.269531 C 76.21875 66.269531 76.457031 66.503906 76.457031 66.800781 C 76.457031 67.09375 76.21875 67.332031 75.925781 67.332031 " fill-opacity="1" fill-rule="nonzero"/><path fill="#000000" d="M 75.925781 65.324219 L 66.710938 65.324219 C 66.417969 65.324219 66.179688 65.089844 66.179688 64.792969 C 66.179688 64.5 66.417969 64.261719 66.710938 64.261719 L 75.925781 64.261719 C 76.21875 64.261719 76.457031 64.5 76.457031 64.792969 C 76.457031 65.089844 76.21875 65.324219 75.925781 65.324219 " fill-opacity="1" fill-rule="nonzero"/><path fill="#000000" d="M 75.925781 63.320312 L 66.710938 63.320312 C 66.417969 63.320312 66.179688 63.082031 66.179688 62.789062 C 66.179688 62.496094 66.417969 62.257812 66.710938 62.257812 L 75.925781 62.257812 C 76.21875 62.257812 76.457031 62.496094 76.457031 62.789062 C 76.457031 63.082031 76.21875 63.320312 75.925781 63.320312 " fill-opacity="1" fill-rule="nonzero"/><g clip-path="url(#id8)"><path fill="#000000" d="M 65.460938 49.597656 C 65.179688 49.597656 64.949219 49.828125 64.949219 50.109375 L 64.949219 72.664062 C 64.949219 72.945312 65.179688 73.171875 65.460938 73.171875 L 77.175781 73.171875 C 77.3125 73.171875 77.441406 73.121094 77.539062 73.023438 C 77.632812 72.925781 77.6875 72.800781 77.6875 72.664062 L 77.6875 50.109375 C 77.6875 49.828125 77.457031 49.597656 77.175781 49.597656 Z M 77.175781 74.234375 L 65.460938 74.234375 C 64.59375 74.234375 63.886719 73.53125 63.886719 72.664062 L 63.886719 50.109375 C 63.886719 49.242188 64.59375 48.535156 65.460938 48.535156 L 77.175781 48.535156 C 78.042969 48.535156 78.75 49.242188 78.75 50.109375 L 78.75 72.664062 C 78.75 73.082031 78.585938 73.476562 78.289062 73.773438 C 77.992188 74.070312 77.597656 74.234375 77.175781 74.234375 " fill-opacity="1" fill-rule="nonzero"/></g></svg>