<svg xmlns="http://www.w3.org/2000/svg" xmlns:xlink="http://www.w3.org/1999/xlink" width="150" zoomAndPan="magnify" viewBox="0 0 112.5 112.499997" height="150" preserveAspectRatio="xMidYMid meet" version="1.0"><defs><clipPath id="id1"><path d="M 33.75 33.75 L 78.75 33.75 L 78.75 78.75 L 33.75 78.75 Z M 33.75 33.75 " clip-rule="nonzero"/></clipPath></defs><path fill="#ffffff" d="M 66.183594 59.015625 L 66.183594 65.839844 L 61.957031 65.839844 L 61.957031 59.015625 C 61.957031 58.03125 61.957031 55.644531 59.792969 55.644531 C 57.332031 55.644531 57.199219 58.125 57.199219 58.125 L 57.199219 65.859375 L 52.953125 65.859375 L 52.953125 52.195312 L 57.199219 52.195312 L 57.199219 54.070312 C 58.203125 52.023438 60.25 51.871094 61.59375 51.871094 C 63.128906 51.871094 64.496094 52.457031 65.292969 53.785156 C 65.972656 54.902344 66.183594 56.496094 66.183594 59.015625 Z M 66.183594 59.015625 " fill-opacity="1" fill-rule="nonzero"/><path fill="#ffffff" d="M 51.246094 47.890625 C 51.246094 48.21875 51.183594 48.53125 51.058594 48.832031 C 50.933594 49.136719 50.753906 49.402344 50.523438 49.632812 C 50.292969 49.863281 50.027344 50.042969 49.722656 50.167969 C 49.421875 50.292969 49.109375 50.355469 48.78125 50.355469 C 48.453125 50.355469 48.140625 50.292969 47.839844 50.167969 C 47.535156 50.042969 47.269531 49.863281 47.039062 49.632812 C 46.808594 49.402344 46.628906 49.136719 46.503906 48.832031 C 46.378906 48.53125 46.316406 48.21875 46.316406 47.890625 C 46.316406 47.5625 46.378906 47.25 46.503906 46.949219 C 46.628906 46.644531 46.808594 46.378906 47.039062 46.148438 C 47.269531 45.917969 47.535156 45.738281 47.839844 45.613281 C 48.140625 45.488281 48.453125 45.425781 48.78125 45.425781 C 49.109375 45.425781 49.421875 45.488281 49.722656 45.613281 C 50.027344 45.738281 50.292969 45.917969 50.523438 46.148438 C 50.753906 46.378906 50.933594 46.644531 51.058594 46.949219 C 51.183594 47.25 51.246094 47.5625 51.246094 47.890625 Z M 51.246094 47.890625 " fill-opacity="1" fill-rule="nonzero"/><path fill="#ffffff" d="M 46.675781 52.195312 L 50.90625 52.195312 L 50.90625 65.859375 L 46.675781 65.859375 Z M 46.675781 52.195312 " fill-opacity="1" fill-rule="nonzero"/><g clip-path="url(#id1)"><path fill="#ffffff" d="M 56.25 78.75 C 43.851562 78.75 33.75 68.664062 33.75 56.25 C 33.75 43.835938 43.851562 33.75 56.25 33.75 C 68.648438 33.75 78.75 43.851562 78.75 56.25 C 78.75 68.648438 68.664062 78.75 56.25 78.75 Z M 56.25 34.980469 C 44.515625 34.980469 34.980469 44.515625 34.980469 56.25 C 34.980469 67.984375 44.515625 77.519531 56.25 77.519531 C 67.984375 77.519531 77.519531 67.984375 77.519531 56.25 C 77.519531 44.515625 67.984375 34.980469 56.25 34.980469 Z M 56.25 34.980469 " fill-opacity="1" fill-rule="nonzero"/></g></svg>