<svg xmlns="http://www.w3.org/2000/svg" xmlns:xlink="http://www.w3.org/1999/xlink" width="150" zoomAndPan="magnify" viewBox="0 0 112.5 112.499997" height="150" preserveAspectRatio="xMidYMid meet" version="1.0"><defs><clipPath id="id1"><path d="M 33.75 43.453125 L 78.75 43.453125 L 78.75 68.953125 L 33.75 68.953125 Z M 33.75 43.453125 " clip-rule="nonzero"/></clipPath></defs><g clip-path="url(#id1)"><path fill="#ffffff" d="M 46.441406 43.472656 C 53.449219 43.472656 59.132812 49.171875 59.132812 56.203125 C 59.132812 63.234375 53.449219 68.933594 46.441406 68.933594 C 39.433594 68.933594 33.75 63.234375 33.75 56.203125 C 33.75 49.171875 39.433594 43.472656 46.441406 43.472656 Z M 66.707031 44.21875 C 70.214844 44.21875 73.054688 49.582031 73.054688 56.203125 C 73.066406 57.796875 72.386719 68.191406 66.710938 68.191406 C 63.203125 68.191406 60.363281 62.820312 60.363281 56.203125 C 60.363281 49.585938 63.203125 44.21875 66.707031 44.21875 Z M 76.519531 45.464844 C 77.75 45.464844 78.75 50.273438 78.75 56.203125 C 78.75 62.132812 77.75 66.941406 76.519531 66.941406 C 75.285156 66.941406 74.285156 62.132812 74.285156 56.203125 C 74.285156 50.273438 75.285156 45.464844 76.519531 45.464844 Z M 76.519531 45.464844 " fill-opacity="1" fill-rule="nonzero"/></g></svg>