<svg xmlns="http://www.w3.org/2000/svg" xmlns:xlink="http://www.w3.org/1999/xlink" width="150" zoomAndPan="magnify" viewBox="0 0 112.5 112.499997" height="150" preserveAspectRatio="xMidYMid meet" version="1.0"><defs><clipPath id="id1"><path d="M 33.75 33.75 L 78.75 33.75 L 78.75 78.75 L 33.75 78.75 Z M 33.75 33.75 " clip-rule="nonzero"/></clipPath></defs><g clip-path="url(#id1)"><path fill="#ffffff" d="M 78.75 56.25 C 78.75 68.679688 68.679688 78.75 56.25 78.75 C 43.820312 78.75 33.75 68.679688 33.75 56.25 C 33.75 43.820312 43.820312 33.75 56.25 33.75 C 68.679688 33.75 78.75 43.820312 78.75 56.25 Z M 52.132812 68.117188 C 62.109375 68.117188 67.566406 59.851562 67.566406 52.683594 C 67.566406 52.449219 67.566406 52.210938 67.554688 51.984375 C 68.613281 51.222656 69.535156 50.265625 70.265625 49.171875 C 69.300781 49.601562 68.253906 49.894531 67.152344 50.027344 C 68.277344 49.355469 69.132812 48.296875 69.535156 47.023438 C 68.488281 47.644531 67.332031 48.09375 66.09375 48.339844 C 65.105469 47.285156 63.699219 46.632812 62.132812 46.632812 C 59.140625 46.632812 56.710938 49.0625 56.710938 52.054688 C 56.710938 52.480469 56.757812 52.898438 56.859375 53.292969 C 52.347656 53.066406 48.351562 50.90625 45.675781 47.621094 C 45.214844 48.421875 44.945312 49.355469 44.945312 50.34375 C 44.945312 52.222656 45.898438 53.886719 47.363281 54.855469 C 46.472656 54.832031 45.640625 54.585938 44.910156 54.179688 C 44.910156 54.203125 44.910156 54.226562 44.910156 54.246094 C 44.910156 56.878906 46.777344 59.0625 49.265625 59.570312 C 48.8125 59.691406 48.328125 59.761719 47.835938 59.761719 C 47.484375 59.761719 47.148438 59.726562 46.8125 59.660156 C 47.496094 61.820312 49.5 63.382812 51.875 63.425781 C 50.015625 64.878906 47.675781 65.746094 45.136719 65.746094 C 44.695312 65.746094 44.269531 65.722656 43.839844 65.667969 C 46.214844 67.21875 49.074219 68.117188 52.132812 68.117188 " fill-opacity="1" fill-rule="nonzero"/></g></svg>