<svg xmlns="http://www.w3.org/2000/svg" xmlns:xlink="http://www.w3.org/1999/xlink" width="150" zoomAndPan="magnify" viewBox="0 0 112.5 112.499997" height="150" preserveAspectRatio="xMidYMid meet" version="1.0"><defs><clipPath id="id1"><path d="M 41 36.054688 L 71 36.054688 L 71 76.554688 L 41 76.554688 Z M 41 36.054688 " clip-rule="nonzero"/></clipPath><clipPath id="id2"><path d="M 72 43 L 78.75 43 L 78.75 50 L 72 50 Z M 72 43 " clip-rule="nonzero"/></clipPath><clipPath id="id3"><path d="M 33.75 51 L 41 51 L 41 59 L 33.75 59 Z M 33.75 51 " clip-rule="nonzero"/></clipPath></defs><g clip-path="url(#id1)"><path fill="#000000" d="M 66.984375 76.574219 L 45.132812 76.574219 C 44.679688 76.574219 44.246094 76.488281 43.832031 76.316406 C 43.414062 76.140625 43.046875 75.894531 42.730469 75.574219 C 42.410156 75.257812 42.164062 74.886719 41.992188 74.472656 C 41.820312 74.054688 41.734375 73.617188 41.734375 73.167969 L 41.734375 39.492188 C 41.734375 39.039062 41.820312 38.605469 41.992188 38.1875 C 42.164062 37.769531 42.410156 37.402344 42.730469 37.082031 C 43.046875 36.761719 43.414062 36.515625 43.832031 36.34375 C 44.246094 36.167969 44.679688 36.082031 45.132812 36.082031 L 66.984375 36.082031 C 67.433594 36.082031 67.867188 36.167969 68.285156 36.34375 C 68.699219 36.515625 69.066406 36.761719 69.386719 37.082031 C 69.703125 37.402344 69.949219 37.769531 70.121094 38.1875 C 70.292969 38.605469 70.382812 39.039062 70.382812 39.492188 L 70.382812 73.167969 C 70.378906 73.621094 70.292969 74.054688 70.121094 74.472656 C 69.949219 74.886719 69.703125 75.257812 69.386719 75.578125 C 69.066406 75.894531 68.699219 76.140625 68.28125 76.316406 C 67.867188 76.488281 67.433594 76.574219 66.984375 76.574219 Z M 45.132812 37.003906 C 44.800781 37.003906 44.484375 37.066406 44.183594 37.195312 C 43.878906 37.320312 43.609375 37.5 43.378906 37.734375 C 43.144531 37.964844 42.964844 38.234375 42.839844 38.539062 C 42.714844 38.84375 42.652344 39.160156 42.652344 39.492188 L 42.652344 73.167969 C 42.652344 73.5 42.714844 73.816406 42.839844 74.121094 C 42.964844 74.425781 43.144531 74.695312 43.378906 74.925781 C 43.609375 75.160156 43.878906 75.339844 44.183594 75.464844 C 44.484375 75.59375 44.800781 75.65625 45.132812 75.65625 L 66.984375 75.65625 C 67.3125 75.65625 67.628906 75.59375 67.933594 75.464844 C 68.234375 75.339844 68.503906 75.160156 68.738281 74.925781 C 68.96875 74.695312 69.148438 74.425781 69.273438 74.121094 C 69.398438 73.816406 69.464844 73.5 69.464844 73.167969 L 69.464844 39.492188 C 69.464844 39.160156 69.398438 38.84375 69.273438 38.539062 C 69.148438 38.234375 68.96875 37.964844 68.738281 37.730469 C 68.503906 37.5 68.234375 37.320312 67.933594 37.191406 C 67.628906 37.066406 67.3125 37.003906 66.984375 37.003906 Z M 45.132812 37.003906 " fill-opacity="1" fill-rule="nonzero"/></g><path fill="#000000" d="M 67.738281 71.101562 L 44.375 71.101562 C 44.25 71.101562 44.140625 71.058594 44.050781 70.96875 C 43.960938 70.878906 43.917969 70.769531 43.917969 70.640625 L 43.917969 42.015625 C 43.917969 41.890625 43.960938 41.78125 44.050781 41.691406 C 44.140625 41.601562 44.25 41.554688 44.375 41.554688 L 67.738281 41.554688 C 67.867188 41.554688 67.976562 41.601562 68.0625 41.691406 C 68.152344 41.78125 68.199219 41.890625 68.199219 42.015625 L 68.199219 70.640625 C 68.199219 70.769531 68.152344 70.878906 68.0625 70.96875 C 67.976562 71.058594 67.867188 71.101562 67.738281 71.101562 Z M 44.835938 70.179688 L 67.28125 70.179688 L 67.28125 42.476562 L 44.835938 42.476562 Z M 44.835938 70.179688 " fill-opacity="1" fill-rule="nonzero"/><path fill="#000000" d="M 59.484375 39.8125 L 52.628906 39.8125 C 52.503906 39.8125 52.394531 39.765625 52.304688 39.675781 C 52.214844 39.585938 52.171875 39.476562 52.171875 39.351562 C 52.171875 39.222656 52.214844 39.113281 52.304688 39.023438 C 52.394531 38.933594 52.503906 38.890625 52.628906 38.890625 L 59.484375 38.890625 C 59.613281 38.890625 59.71875 38.933594 59.808594 39.023438 C 59.898438 39.113281 59.945312 39.222656 59.945312 39.351562 C 59.945312 39.476562 59.898438 39.585938 59.808594 39.675781 C 59.71875 39.765625 59.613281 39.8125 59.484375 39.8125 Z M 59.484375 39.8125 " fill-opacity="1" fill-rule="nonzero"/><path fill="#000000" d="M 50.941406 39.8125 L 50.15625 39.8125 C 50.027344 39.8125 49.917969 39.765625 49.832031 39.675781 C 49.742188 39.585938 49.695312 39.476562 49.695312 39.351562 C 49.695312 39.222656 49.742188 39.113281 49.832031 39.023438 C 49.917969 38.933594 50.027344 38.890625 50.15625 38.890625 L 50.941406 38.890625 C 51.066406 38.890625 51.175781 38.933594 51.265625 39.023438 C 51.355469 39.113281 51.402344 39.222656 51.402344 39.351562 C 51.402344 39.476562 51.355469 39.585938 51.265625 39.675781 C 51.175781 39.765625 51.066406 39.8125 50.941406 39.8125 Z M 50.941406 39.8125 " fill-opacity="1" fill-rule="nonzero"/><path fill="#000000" d="M 56.058594 75.121094 C 55.820312 75.121094 55.597656 75.078125 55.378906 74.988281 C 55.160156 74.898438 54.96875 74.769531 54.804688 74.601562 C 54.636719 74.433594 54.507812 74.242188 54.417969 74.023438 C 54.328125 73.808594 54.285156 73.582031 54.285156 73.34375 C 54.285156 73.109375 54.328125 72.882812 54.417969 72.664062 C 54.507812 72.445312 54.636719 72.253906 54.804688 72.085938 C 54.96875 71.921875 55.160156 71.792969 55.378906 71.703125 C 55.59375 71.613281 55.820312 71.566406 56.058594 71.566406 C 56.292969 71.566406 56.519531 71.613281 56.734375 71.703125 C 56.953125 71.792969 57.144531 71.921875 57.308594 72.085938 C 57.476562 72.253906 57.605469 72.445312 57.695312 72.664062 C 57.785156 72.882812 57.828125 73.109375 57.828125 73.34375 C 57.828125 73.582031 57.785156 73.808594 57.695312 74.023438 C 57.605469 74.242188 57.476562 74.433594 57.308594 74.601562 C 57.144531 74.765625 56.953125 74.894531 56.734375 74.984375 C 56.519531 75.078125 56.292969 75.121094 56.058594 75.121094 Z M 56.058594 72.488281 C 55.820312 72.488281 55.621094 72.570312 55.453125 72.738281 C 55.285156 72.90625 55.203125 73.109375 55.203125 73.34375 C 55.203125 73.582031 55.285156 73.78125 55.453125 73.949219 C 55.617188 74.117188 55.820312 74.199219 56.054688 74.199219 C 56.292969 74.199219 56.492188 74.117188 56.660156 73.949219 C 56.828125 73.785156 56.910156 73.582031 56.910156 73.34375 C 56.910156 73.109375 56.828125 72.90625 56.660156 72.738281 C 56.492188 72.570312 56.292969 72.488281 56.058594 72.488281 Z M 56.058594 72.488281 " fill-opacity="1" fill-rule="nonzero"/><path fill="#000000" d="M 52.890625 48.777344 C 52.574219 48.636719 52.324219 48.414062 52.140625 48.121094 C 51.957031 47.824219 51.875 47.5 51.886719 47.152344 L 51.886719 44.5 C 51.886719 44.414062 51.914062 44.34375 51.972656 44.28125 C 52.03125 44.21875 52.105469 44.1875 52.1875 44.191406 C 52.273438 44.191406 52.347656 44.21875 52.40625 44.28125 C 52.46875 44.339844 52.496094 44.414062 52.496094 44.5 L 52.496094 47.171875 C 52.488281 47.417969 52.550781 47.648438 52.679688 47.855469 C 52.800781 48.042969 52.964844 48.1875 53.167969 48.28125 C 53.59375 48.476562 54.023438 48.476562 54.453125 48.28125 C 54.652344 48.1875 54.816406 48.042969 54.9375 47.855469 C 55.066406 47.648438 55.128906 47.417969 55.121094 47.171875 L 55.121094 44.5 C 55.121094 44.414062 55.148438 44.34375 55.207031 44.28125 C 55.265625 44.21875 55.335938 44.1875 55.421875 44.191406 C 55.507812 44.191406 55.578125 44.21875 55.640625 44.28125 C 55.699219 44.339844 55.730469 44.414062 55.730469 44.5 L 55.730469 47.152344 C 55.742188 47.519531 55.648438 47.855469 55.449219 48.164062 C 55.265625 48.4375 55.027344 48.640625 54.726562 48.777344 C 54.113281 49.058594 53.503906 49.058594 52.890625 48.777344 Z M 52.890625 48.777344 " fill-opacity="1" fill-rule="nonzero"/><path fill="#000000" d="M 53.808594 49.070312 C 53.476562 49.070312 53.15625 49 52.855469 48.863281 C 52.519531 48.710938 52.257812 48.480469 52.0625 48.171875 C 51.871094 47.859375 51.78125 47.519531 51.796875 47.152344 L 51.796875 44.5 C 51.792969 44.320312 51.875 44.199219 52.039062 44.128906 C 52.203125 44.0625 52.347656 44.089844 52.472656 44.21875 C 52.550781 44.292969 52.589844 44.386719 52.589844 44.5 L 52.589844 47.171875 C 52.582031 47.402344 52.640625 47.613281 52.761719 47.808594 C 52.871094 47.984375 53.019531 48.113281 53.207031 48.199219 C 53.609375 48.386719 54.011719 48.386719 54.417969 48.199219 C 54.601562 48.113281 54.75 47.984375 54.863281 47.808594 C 54.984375 47.617188 55.039062 47.40625 55.03125 47.175781 L 55.03125 44.5 C 55.03125 44.320312 55.113281 44.199219 55.277344 44.128906 C 55.441406 44.0625 55.582031 44.089844 55.707031 44.21875 C 55.789062 44.292969 55.828125 44.386719 55.824219 44.5 L 55.824219 47.152344 C 55.839844 47.519531 55.75 47.859375 55.558594 48.167969 C 55.367188 48.480469 55.101562 48.710938 54.769531 48.863281 C 54.464844 49.003906 54.144531 49.074219 53.808594 49.070312 Z M 52.1875 44.28125 C 52.128906 44.28125 52.082031 44.300781 52.039062 44.34375 C 52 44.386719 51.976562 44.4375 51.980469 44.5 L 51.980469 47.152344 C 51.96875 47.5 52.054688 47.820312 52.242188 48.113281 C 52.417969 48.371094 52.644531 48.566406 52.929688 48.695312 C 53.515625 48.964844 54.101562 48.964844 54.6875 48.695312 C 54.972656 48.566406 55.199219 48.371094 55.375 48.113281 C 55.5625 47.820312 55.652344 47.5 55.640625 47.152344 L 55.640625 44.5 C 55.640625 44.40625 55.59375 44.339844 55.507812 44.300781 C 55.421875 44.265625 55.34375 44.28125 55.273438 44.347656 C 55.234375 44.386719 55.210938 44.441406 55.214844 44.5 L 55.214844 47.171875 C 55.222656 47.4375 55.15625 47.683594 55.015625 47.910156 C 54.882812 48.109375 54.710938 48.261719 54.492188 48.363281 C 54.035156 48.574219 53.582031 48.574219 53.128906 48.363281 C 52.910156 48.261719 52.734375 48.109375 52.605469 47.90625 C 52.464844 47.683594 52.398438 47.4375 52.40625 47.171875 L 52.40625 44.5 C 52.40625 44.4375 52.382812 44.386719 52.339844 44.347656 C 52.300781 44.304688 52.25 44.28125 52.1875 44.28125 Z M 52.1875 44.28125 " fill-opacity="1" fill-rule="nonzero"/><path fill="#000000" d="M 56.726562 48.863281 C 56.667969 48.808594 56.640625 48.742188 56.640625 48.664062 C 56.640625 48.59375 56.660156 48.53125 56.703125 48.476562 L 58.25 46.566406 L 56.714844 44.671875 C 56.675781 44.617188 56.65625 44.554688 56.65625 44.484375 C 56.652344 44.402344 56.679688 44.332031 56.738281 44.273438 C 56.796875 44.214844 56.867188 44.1875 56.949219 44.1875 C 57 44.1875 57.046875 44.199219 57.089844 44.222656 C 57.132812 44.242188 57.167969 44.273438 57.199219 44.308594 L 58.613281 46.109375 L 60.023438 44.296875 C 60.078125 44.21875 60.152344 44.183594 60.246094 44.1875 C 60.328125 44.1875 60.394531 44.214844 60.453125 44.273438 C 60.511719 44.328125 60.542969 44.398438 60.539062 44.476562 C 60.542969 44.539062 60.523438 44.597656 60.488281 44.644531 L 58.9375 46.558594 L 60.488281 48.46875 C 60.53125 48.519531 60.550781 48.578125 60.546875 48.640625 C 60.550781 48.726562 60.519531 48.796875 60.464844 48.855469 C 60.398438 48.921875 60.316406 48.953125 60.222656 48.945312 C 60.132812 48.933594 60.058594 48.894531 60.003906 48.816406 L 58.570312 47.011719 L 57.15625 48.824219 C 57.097656 48.902344 57.019531 48.941406 56.921875 48.945312 C 56.847656 48.945312 56.78125 48.917969 56.726562 48.863281 Z M 56.726562 48.863281 " fill-opacity="1" fill-rule="nonzero"/><path fill="#000000" d="M 60.246094 49.039062 C 60.109375 49.039062 60.003906 48.984375 59.929688 48.875 L 58.570312 47.160156 L 57.230469 48.882812 C 57.164062 48.976562 57.070312 49.027344 56.957031 49.039062 C 56.839844 49.046875 56.742188 49.011719 56.660156 48.929688 C 56.585938 48.855469 56.550781 48.769531 56.550781 48.664062 C 56.550781 48.574219 56.574219 48.492188 56.628906 48.421875 L 58.132812 46.566406 L 56.644531 44.730469 C 56.589844 44.65625 56.5625 44.574219 56.566406 44.484375 C 56.5625 44.375 56.597656 44.285156 56.675781 44.207031 C 56.8125 44.074219 56.964844 44.054688 57.136719 44.140625 C 57.191406 44.167969 57.234375 44.207031 57.273438 44.253906 L 58.613281 45.960938 L 59.953125 44.238281 C 60.023438 44.152344 60.117188 44.105469 60.226562 44.097656 C 60.339844 44.09375 60.4375 44.128906 60.519531 44.207031 C 60.597656 44.28125 60.636719 44.371094 60.632812 44.476562 C 60.632812 44.558594 60.609375 44.632812 60.5625 44.699219 L 59.058594 46.5625 L 60.558594 48.410156 C 60.617188 48.476562 60.644531 48.554688 60.640625 48.640625 C 60.640625 48.75 60.605469 48.839844 60.53125 48.917969 C 60.453125 49 60.359375 49.042969 60.246094 49.039062 Z M 58.570312 46.863281 L 60.074219 48.761719 C 60.132812 48.851562 60.210938 48.878906 60.308594 48.847656 C 60.410156 48.816406 60.457031 48.75 60.453125 48.644531 C 60.457031 48.601562 60.445312 48.5625 60.417969 48.53125 L 58.820312 46.5625 L 60.414062 44.589844 C 60.4375 44.558594 60.449219 44.519531 60.449219 44.480469 C 60.449219 44.425781 60.429688 44.378906 60.390625 44.339844 C 60.351562 44.300781 60.300781 44.28125 60.246094 44.285156 C 60.183594 44.277344 60.136719 44.300781 60.101562 44.351562 L 58.613281 46.261719 L 57.125 44.371094 C 57.105469 44.34375 57.082031 44.320312 57.050781 44.308594 C 56.960938 44.261719 56.878906 44.269531 56.804688 44.339844 C 56.765625 44.378906 56.746094 44.429688 56.746094 44.488281 C 56.746094 44.535156 56.761719 44.578125 56.789062 44.621094 L 58.367188 46.566406 L 56.773438 48.53125 C 56.746094 48.570312 56.734375 48.613281 56.734375 48.664062 C 56.734375 48.714844 56.753906 48.757812 56.789062 48.796875 C 56.832031 48.839844 56.886719 48.859375 56.945312 48.851562 C 57.007812 48.847656 57.054688 48.816406 57.085938 48.765625 Z M 58.570312 46.863281 " fill-opacity="1" fill-rule="nonzero"/><path fill="#000000" d="M 53.578125 57.535156 C 53.257812 57.390625 53.007812 57.171875 52.824219 56.875 C 52.640625 56.578125 52.558594 56.257812 52.570312 55.910156 L 52.570312 53.253906 C 52.570312 53.171875 52.597656 53.097656 52.660156 53.035156 C 52.71875 52.972656 52.789062 52.945312 52.875 52.945312 C 52.957031 52.945312 53.03125 52.976562 53.089844 53.035156 C 53.152344 53.097656 53.179688 53.167969 53.179688 53.253906 L 53.179688 55.925781 C 53.171875 56.171875 53.234375 56.402344 53.363281 56.609375 C 53.484375 56.800781 53.648438 56.941406 53.851562 57.035156 C 54.277344 57.230469 54.707031 57.230469 55.136719 57.035156 C 55.339844 56.941406 55.5 56.800781 55.621094 56.609375 C 55.75 56.402344 55.8125 56.171875 55.804688 55.925781 L 55.804688 53.253906 C 55.804688 53.167969 55.832031 53.097656 55.890625 53.035156 C 55.949219 52.972656 56.019531 52.941406 56.105469 52.945312 C 56.191406 52.945312 56.265625 52.972656 56.324219 53.035156 C 56.382812 53.09375 56.414062 53.167969 56.414062 53.253906 L 56.414062 55.90625 C 56.425781 56.273438 56.332031 56.609375 56.132812 56.917969 C 55.949219 57.191406 55.710938 57.398438 55.410156 57.535156 C 54.796875 57.816406 54.1875 57.816406 53.574219 57.535156 Z M 53.578125 57.535156 " fill-opacity="1" fill-rule="nonzero"/><path fill="#000000" d="M 54.496094 57.828125 C 54.160156 57.828125 53.84375 57.757812 53.539062 57.617188 C 53.226562 57.476562 52.972656 57.261719 52.78125 56.972656 C 52.570312 56.652344 52.472656 56.296875 52.480469 55.910156 L 52.480469 53.253906 C 52.480469 53.078125 52.558594 52.953125 52.722656 52.882812 C 52.886719 52.816406 53.03125 52.84375 53.15625 52.972656 C 53.238281 53.050781 53.277344 53.144531 53.277344 53.253906 L 53.277344 55.925781 C 53.269531 56.15625 53.324219 56.367188 53.445312 56.5625 C 53.554688 56.734375 53.707031 56.863281 53.890625 56.953125 C 54.292969 57.136719 54.699219 57.136719 55.101562 56.953125 C 55.285156 56.863281 55.4375 56.734375 55.546875 56.5625 C 55.667969 56.367188 55.722656 56.15625 55.71875 55.925781 L 55.71875 53.253906 C 55.714844 53.078125 55.796875 52.953125 55.960938 52.882812 C 56.125 52.816406 56.269531 52.84375 56.394531 52.972656 C 56.472656 53.050781 56.511719 53.144531 56.511719 53.253906 L 56.511719 55.910156 C 56.519531 56.292969 56.421875 56.648438 56.210938 56.972656 C 56.019531 57.257812 55.765625 57.472656 55.453125 57.617188 C 55.148438 57.757812 54.828125 57.828125 54.496094 57.828125 Z M 52.875 53.039062 C 52.8125 53.035156 52.765625 53.058594 52.726562 53.101562 C 52.683594 53.144531 52.664062 53.195312 52.664062 53.253906 L 52.664062 55.910156 C 52.652344 56.257812 52.742188 56.574219 52.929688 56.867188 C 53.101562 57.128906 53.332031 57.320312 53.613281 57.449219 C 54.199219 57.71875 54.789062 57.71875 55.375 57.449219 C 55.65625 57.320312 55.886719 57.128906 56.058594 56.867188 C 56.246094 56.574219 56.335938 56.257812 56.324219 55.910156 L 56.324219 53.253906 C 56.324219 53.195312 56.304688 53.144531 56.261719 53.101562 C 56.160156 52.996094 56.058594 52.996094 55.960938 53.101562 C 55.917969 53.144531 55.898438 53.195312 55.898438 53.257812 L 55.898438 55.925781 C 55.90625 56.195312 55.839844 56.4375 55.699219 56.664062 C 55.566406 56.867188 55.394531 57.019531 55.175781 57.121094 C 54.722656 57.328125 54.265625 57.328125 53.8125 57.121094 C 53.59375 57.019531 53.417969 56.867188 53.289062 56.664062 C 53.148438 56.441406 53.082031 56.195312 53.089844 55.929688 L 53.089844 53.257812 C 53.089844 53.195312 53.070312 53.144531 53.027344 53.105469 C 52.984375 53.058594 52.933594 53.039062 52.875 53.039062 Z M 52.875 53.039062 " fill-opacity="1" fill-rule="nonzero"/><path fill="#000000" d="M 57.769531 57.613281 C 57.710938 57.554688 57.679688 57.484375 57.683594 57.402344 L 57.683594 53.253906 C 57.679688 53.171875 57.710938 53.097656 57.769531 53.035156 C 57.828125 52.972656 57.898438 52.945312 57.984375 52.945312 C 58.070312 52.945312 58.140625 52.976562 58.203125 53.035156 C 58.261719 53.097656 58.292969 53.167969 58.292969 53.253906 L 58.292969 57.398438 C 58.292969 57.484375 58.261719 57.554688 58.199219 57.613281 C 58.140625 57.671875 58.066406 57.703125 57.980469 57.699219 C 57.898438 57.703125 57.828125 57.675781 57.769531 57.613281 Z M 57.769531 57.613281 " fill-opacity="1" fill-rule="nonzero"/><path fill="#000000" d="M 57.984375 57.792969 C 57.875 57.796875 57.78125 57.757812 57.703125 57.679688 C 57.625 57.601562 57.589844 57.511719 57.589844 57.402344 L 57.589844 53.253906 C 57.589844 53.144531 57.625 53.050781 57.703125 52.972656 C 57.78125 52.894531 57.875 52.855469 57.984375 52.855469 C 58.09375 52.855469 58.1875 52.894531 58.265625 52.972656 C 58.347656 53.050781 58.386719 53.144531 58.382812 53.257812 L 58.382812 57.402344 C 58.386719 57.511719 58.347656 57.605469 58.265625 57.683594 C 58.1875 57.757812 58.09375 57.796875 57.984375 57.792969 Z M 57.832031 57.550781 C 57.933594 57.648438 58.035156 57.648438 58.136719 57.550781 C 58.179688 57.511719 58.203125 57.460938 58.199219 57.402344 L 58.199219 53.257812 C 58.203125 53.195312 58.179688 53.144531 58.136719 53.105469 C 58.070312 53.035156 57.992188 53.019531 57.902344 53.054688 C 57.816406 53.09375 57.773438 53.160156 57.773438 53.257812 L 57.773438 57.402344 C 57.773438 57.460938 57.792969 57.507812 57.832031 57.550781 Z M 57.832031 57.550781 " fill-opacity="1" fill-rule="nonzero"/><path fill="#000000" d="M 65.019531 51.226562 L 47.09375 51.226562 C 46.964844 51.226562 46.859375 51.179688 46.769531 51.089844 C 46.679688 51 46.632812 50.890625 46.632812 50.765625 C 46.632812 50.636719 46.679688 50.527344 46.769531 50.4375 C 46.859375 50.347656 46.964844 50.304688 47.09375 50.304688 L 65.019531 50.304688 C 65.148438 50.304688 65.253906 50.347656 65.34375 50.4375 C 65.433594 50.527344 65.480469 50.636719 65.480469 50.765625 C 65.480469 50.890625 65.433594 51 65.34375 51.089844 C 65.253906 51.179688 65.148438 51.226562 65.019531 51.226562 Z M 65.019531 51.226562 " fill-opacity="1" fill-rule="nonzero"/><path fill="#000000" d="M 64.636719 68.34375 L 47.480469 68.34375 C 47.351562 68.34375 47.246094 68.300781 47.15625 68.210938 C 47.066406 68.121094 47.019531 68.011719 47.019531 67.882812 C 47.019531 67.757812 47.066406 67.648438 47.15625 67.558594 C 47.246094 67.46875 47.351562 67.421875 47.480469 67.421875 L 64.636719 67.421875 C 64.765625 67.421875 64.871094 67.46875 64.960938 67.558594 C 65.050781 67.648438 65.097656 67.757812 65.097656 67.882812 C 65.097656 68.011719 65.050781 68.121094 64.960938 68.210938 C 64.871094 68.300781 64.765625 68.34375 64.636719 68.34375 Z M 64.636719 68.34375 " fill-opacity="1" fill-rule="nonzero"/><path fill="#000000" d="M 61.820312 66.039062 L 50.292969 66.039062 C 50.167969 66.039062 50.058594 65.992188 49.96875 65.902344 C 49.878906 65.8125 49.835938 65.703125 49.835938 65.578125 C 49.835938 65.449219 49.878906 65.339844 49.96875 65.25 C 50.058594 65.160156 50.167969 65.117188 50.292969 65.117188 L 61.820312 65.117188 C 61.945312 65.117188 62.054688 65.160156 62.144531 65.25 C 62.234375 65.339844 62.277344 65.449219 62.277344 65.578125 C 62.277344 65.703125 62.234375 65.8125 62.144531 65.902344 C 62.054688 65.992188 61.945312 66.039062 61.820312 66.039062 Z M 61.820312 66.039062 " fill-opacity="1" fill-rule="nonzero"/><path fill="#000000" d="M 59.378906 64.003906 L 52.734375 64.003906 C 52.566406 64.003906 52.402344 63.96875 52.246094 63.90625 C 52.089844 63.839844 51.949219 63.746094 51.828125 63.625 C 51.710938 63.507812 51.617188 63.367188 51.550781 63.210938 C 51.488281 63.050781 51.453125 62.890625 51.453125 62.71875 L 51.453125 60.554688 C 51.453125 60.382812 51.488281 60.21875 51.550781 60.0625 C 51.617188 59.90625 51.710938 59.765625 51.828125 59.644531 C 51.949219 59.527344 52.089844 59.433594 52.246094 59.367188 C 52.402344 59.300781 52.566406 59.269531 52.734375 59.269531 L 59.378906 59.269531 C 59.550781 59.269531 59.710938 59.300781 59.871094 59.367188 C 60.027344 59.433594 60.164062 59.527344 60.285156 59.644531 C 60.40625 59.765625 60.496094 59.90625 60.5625 60.0625 C 60.628906 60.21875 60.660156 60.382812 60.660156 60.554688 L 60.660156 62.71875 C 60.660156 62.890625 60.628906 63.050781 60.5625 63.210938 C 60.496094 63.367188 60.40625 63.507812 60.285156 63.625 C 60.164062 63.746094 60.027344 63.839844 59.871094 63.90625 C 59.710938 63.96875 59.550781 64.003906 59.378906 64.003906 Z M 52.734375 60.191406 C 52.636719 60.191406 52.550781 60.226562 52.480469 60.296875 C 52.40625 60.367188 52.371094 60.453125 52.371094 60.554688 L 52.371094 62.71875 C 52.371094 62.820312 52.40625 62.90625 52.480469 62.976562 C 52.550781 63.046875 52.636719 63.082031 52.734375 63.082031 L 59.378906 63.082031 C 59.480469 63.082031 59.566406 63.046875 59.636719 62.976562 C 59.707031 62.90625 59.742188 62.820312 59.742188 62.71875 L 59.742188 60.554688 C 59.742188 60.453125 59.707031 60.367188 59.636719 60.296875 C 59.566406 60.226562 59.480469 60.191406 59.378906 60.191406 Z M 52.734375 60.191406 " fill-opacity="1" fill-rule="nonzero"/><path fill="#000000" d="M 72.6875 46.871094 L 65.019531 46.871094 C 64.894531 46.871094 64.785156 46.828125 64.695312 46.738281 C 64.605469 46.648438 64.5625 46.539062 64.5625 46.410156 C 64.5625 46.285156 64.605469 46.175781 64.695312 46.085938 C 64.785156 45.996094 64.894531 45.949219 65.019531 45.949219 L 72.6875 45.949219 C 72.816406 45.949219 72.921875 45.996094 73.011719 46.085938 C 73.101562 46.175781 73.148438 46.285156 73.148438 46.410156 C 73.148438 46.539062 73.101562 46.648438 73.011719 46.738281 C 72.921875 46.828125 72.816406 46.871094 72.6875 46.871094 Z M 72.6875 46.871094 " fill-opacity="1" fill-rule="nonzero"/><g clip-path="url(#id2)"><path fill="#000000" d="M 78.289062 49.683594 L 72.6875 49.683594 C 72.5625 49.683594 72.453125 49.636719 72.363281 49.546875 C 72.273438 49.457031 72.230469 49.347656 72.230469 49.222656 L 72.230469 43.601562 C 72.230469 43.476562 72.273438 43.367188 72.363281 43.277344 C 72.453125 43.1875 72.5625 43.140625 72.6875 43.140625 L 78.289062 43.140625 C 78.417969 43.140625 78.527344 43.1875 78.617188 43.277344 C 78.707031 43.367188 78.75 43.476562 78.75 43.601562 L 78.75 49.222656 C 78.75 49.347656 78.707031 49.457031 78.617188 49.546875 C 78.527344 49.636719 78.417969 49.683594 78.289062 49.683594 Z M 73.148438 48.761719 L 77.832031 48.761719 L 77.832031 44.0625 L 73.148438 44.0625 Z M 73.148438 48.761719 " fill-opacity="1" fill-rule="nonzero"/></g><path fill="#000000" d="M 76.660156 46.050781 L 74.316406 46.050781 C 74.191406 46.050781 74.082031 46.007812 73.992188 45.917969 C 73.902344 45.828125 73.859375 45.71875 73.859375 45.589844 C 73.859375 45.464844 73.902344 45.355469 73.992188 45.265625 C 74.082031 45.175781 74.191406 45.128906 74.316406 45.128906 L 76.660156 45.128906 C 76.785156 45.128906 76.894531 45.175781 76.984375 45.265625 C 77.074219 45.355469 77.117188 45.464844 77.117188 45.589844 C 77.117188 45.71875 77.074219 45.828125 76.984375 45.917969 C 76.894531 46.007812 76.785156 46.050781 76.660156 46.050781 Z M 76.660156 46.050781 " fill-opacity="1" fill-rule="nonzero"/><path fill="#000000" d="M 76.660156 47.691406 L 74.316406 47.691406 C 74.191406 47.691406 74.082031 47.648438 73.992188 47.558594 C 73.902344 47.46875 73.859375 47.359375 73.859375 47.230469 C 73.859375 47.105469 73.902344 46.996094 73.992188 46.90625 C 74.082031 46.816406 74.191406 46.773438 74.316406 46.773438 L 76.660156 46.773438 C 76.785156 46.773438 76.894531 46.816406 76.984375 46.90625 C 77.074219 46.996094 77.117188 47.105469 77.117188 47.230469 C 77.117188 47.359375 77.074219 47.46875 76.984375 47.558594 C 76.894531 47.648438 76.785156 47.691406 76.660156 47.691406 Z M 76.660156 47.691406 " fill-opacity="1" fill-rule="nonzero"/><path fill="#000000" d="M 47.480469 55.679688 L 39.8125 55.679688 C 39.683594 55.679688 39.578125 55.632812 39.488281 55.542969 C 39.398438 55.453125 39.351562 55.34375 39.351562 55.21875 C 39.351562 55.089844 39.398438 54.984375 39.488281 54.894531 C 39.578125 54.804688 39.683594 54.757812 39.8125 54.757812 L 47.480469 54.757812 C 47.605469 54.757812 47.714844 54.804688 47.804688 54.894531 C 47.894531 54.984375 47.9375 55.089844 47.9375 55.21875 C 47.9375 55.34375 47.894531 55.453125 47.804688 55.542969 C 47.714844 55.632812 47.605469 55.679688 47.480469 55.679688 Z M 47.480469 55.679688 " fill-opacity="1" fill-rule="nonzero"/><g clip-path="url(#id3)"><path fill="#000000" d="M 39.8125 58.488281 L 34.210938 58.488281 C 34.082031 58.488281 33.972656 58.445312 33.882812 58.355469 C 33.792969 58.265625 33.75 58.15625 33.75 58.027344 L 33.75 52.410156 C 33.75 52.28125 33.792969 52.175781 33.882812 52.085938 C 33.972656 51.996094 34.082031 51.949219 34.210938 51.949219 L 39.8125 51.949219 C 39.9375 51.949219 40.046875 51.996094 40.136719 52.085938 C 40.226562 52.175781 40.269531 52.28125 40.269531 52.410156 L 40.269531 58.027344 C 40.269531 58.15625 40.226562 58.265625 40.136719 58.355469 C 40.046875 58.445312 39.9375 58.488281 39.8125 58.488281 Z M 34.667969 57.566406 L 39.351562 57.566406 L 39.351562 52.871094 L 34.667969 52.871094 Z M 34.667969 57.566406 " fill-opacity="1" fill-rule="nonzero"/></g><path fill="#000000" d="M 38.355469 54.859375 L 35.664062 54.859375 C 35.539062 54.859375 35.429688 54.8125 35.339844 54.722656 C 35.25 54.632812 35.207031 54.523438 35.207031 54.398438 C 35.207031 54.269531 35.25 54.160156 35.339844 54.070312 C 35.429688 53.980469 35.539062 53.9375 35.664062 53.9375 L 38.355469 53.9375 C 38.484375 53.9375 38.589844 53.980469 38.679688 54.070312 C 38.769531 54.160156 38.816406 54.269531 38.816406 54.398438 C 38.816406 54.523438 38.769531 54.632812 38.679688 54.722656 C 38.589844 54.8125 38.484375 54.859375 38.355469 54.859375 Z M 38.355469 54.859375 " fill-opacity="1" fill-rule="nonzero"/><path fill="#000000" d="M 38.355469 56.5 L 35.664062 56.5 C 35.539062 56.5 35.429688 56.457031 35.339844 56.367188 C 35.25 56.273438 35.207031 56.167969 35.207031 56.039062 C 35.207031 55.914062 35.25 55.804688 35.339844 55.714844 C 35.429688 55.625 35.539062 55.578125 35.664062 55.578125 L 38.355469 55.578125 C 38.484375 55.578125 38.589844 55.625 38.679688 55.714844 C 38.769531 55.804688 38.816406 55.914062 38.816406 56.039062 C 38.816406 56.167969 38.769531 56.273438 38.679688 56.367188 C 38.589844 56.457031 38.484375 56.5 38.355469 56.5 Z M 38.355469 56.5 " fill-opacity="1" fill-rule="nonzero"/></svg>