<svg xmlns="http://www.w3.org/2000/svg" xmlns:xlink="http://www.w3.org/1999/xlink" width="150" zoomAndPan="magnify" viewBox="0 0 112.5 112.499997" height="150" preserveAspectRatio="xMidYMid meet" version="1.0"><defs><clipPath id="id1"><path d="M 33.75 33.75 L 78.75 33.75 L 78.75 78.75 L 33.75 78.75 Z M 33.75 33.75 " clip-rule="nonzero"/></clipPath></defs><g clip-path="url(#id1)"><path fill="#ffffff" d="M 56.261719 77.625 C 44.46875 77.625 34.902344 68.058594 34.902344 56.261719 C 34.902344 44.46875 44.46875 34.902344 56.261719 34.902344 C 68.058594 34.902344 77.625 44.46875 77.625 56.261719 C 77.625 68.058594 68.058594 77.625 56.261719 77.625 Z M 56.261719 33.757812 C 43.832031 33.757812 33.757812 43.832031 33.757812 56.261719 C 33.757812 68.695312 43.832031 78.769531 56.261719 78.769531 C 68.695312 78.769531 78.769531 68.695312 78.769531 56.261719 C 78.769531 43.832031 68.695312 33.757812 56.261719 33.757812 " fill-opacity="1" fill-rule="nonzero"/></g><path fill="#ffffff" d="M 72.246094 53.9375 C 72.058594 53.058594 71.496094 52.480469 70.625 52.261719 C 69.777344 52.046875 69.054688 52.265625 68.453125 52.863281 C 68.394531 52.921875 68.335938 52.984375 68.28125 53.050781 C 68.503906 53.273438 68.726562 53.496094 68.945312 53.71875 C 69.117188 53.890625 69.289062 54.0625 69.457031 54.234375 C 69.460938 54.234375 69.460938 54.234375 69.460938 54.234375 C 69.71875 54.492188 69.972656 54.746094 70.226562 55.003906 C 70.40625 55.183594 70.585938 55.363281 70.765625 55.542969 L 71.429688 56.207031 C 71.488281 56.160156 71.542969 56.113281 71.59375 56.066406 C 72.191406 55.496094 72.421875 54.78125 72.246094 53.9375 " fill-opacity="1" fill-rule="nonzero"/><path fill="#ffffff" d="M 48.867188 54.691406 C 49.785156 54.703125 50.589844 54.480469 51.226562 53.746094 C 51.734375 53.15625 52.1875 53.15625 52.78125 53.671875 C 53.128906 53.976562 53.511719 54.1875 53.851562 54.179688 C 54.546875 54.179688 55.023438 53.945312 55.484375 53.671875 C 55.824219 53.46875 56.140625 53.21875 56.527344 53.105469 C 56.882812 53 57.195312 53.007812 57.433594 53.367188 C 57.945312 54.144531 58.320312 54.265625 59.164062 53.867188 C 60.121094 53.417969 61.085938 53.222656 62.121094 53.511719 C 62.414062 53.59375 62.65625 53.496094 62.746094 53.210938 C 62.789062 53.070312 62.785156 52.949219 62.738281 52.847656 C 62.683594 52.722656 62.566406 52.636719 62.402344 52.578125 C 62.394531 52.574219 62.390625 52.574219 62.386719 52.570312 C 62.304688 52.546875 62.21875 52.527344 62.136719 52.511719 C 60.996094 52.273438 59.910156 52.429688 58.867188 52.9375 C 58.667969 53.035156 58.476562 53.203125 58.261719 52.875 C 57.742188 52.089844 57.046875 51.890625 56.152344 52.199219 C 55.671875 52.363281 55.273438 52.667969 54.839844 52.914062 C 54.136719 53.316406 53.894531 53.296875 53.265625 52.792969 C 52.441406 52.136719 51.414062 52.132812 50.695312 52.898438 C 50.171875 53.457031 49.609375 53.765625 48.84375 53.714844 C 48.511719 53.695312 48.246094 53.832031 48.257812 54.210938 C 48.273438 54.574219 48.53125 54.6875 48.867188 54.691406 " fill-opacity="1" fill-rule="nonzero"/><path fill="#ffffff" d="M 48.253906 58.613281 C 48.269531 58.976562 48.527344 59.089844 48.863281 59.097656 C 49.785156 59.109375 50.585938 58.882812 51.222656 58.148438 C 51.730469 57.558594 52.183594 57.558594 52.777344 58.078125 C 53.128906 58.382812 53.507812 58.589844 53.84375 58.582031 C 54.542969 58.582031 55.019531 58.347656 55.480469 58.074219 C 55.824219 57.871094 56.136719 57.621094 56.523438 57.507812 C 56.878906 57.40625 57.191406 57.414062 57.429688 57.773438 C 57.941406 58.546875 58.316406 58.671875 59.160156 58.269531 C 60.117188 57.824219 61.082031 57.628906 62.117188 57.917969 C 62.410156 57.996094 62.652344 57.902344 62.742188 57.613281 C 62.789062 57.472656 62.78125 57.351562 62.734375 57.25 C 62.679688 57.128906 62.5625 57.039062 62.398438 56.984375 C 62.390625 56.980469 62.386719 56.976562 62.382812 56.976562 C 62.300781 56.949219 62.214844 56.933594 62.132812 56.914062 C 60.992188 56.675781 59.90625 56.832031 58.863281 57.34375 C 58.664062 57.441406 58.472656 57.605469 58.257812 57.28125 C 57.738281 56.496094 57.042969 56.296875 56.148438 56.601562 C 55.667969 56.769531 55.269531 57.074219 54.835938 57.320312 C 54.132812 57.722656 53.890625 57.699219 53.261719 57.199219 C 52.4375 56.539062 51.410156 56.539062 50.695312 57.300781 C 50.167969 57.863281 49.609375 58.171875 48.839844 58.121094 C 48.507812 58.097656 48.242188 58.234375 48.253906 58.613281 " fill-opacity="1" fill-rule="nonzero"/><path fill="#ffffff" d="M 57.742188 61.890625 C 57.773438 61.75 57.769531 61.628906 57.738281 61.527344 C 57.703125 61.40625 57.625 61.316406 57.515625 61.257812 C 57.515625 61.253906 57.511719 61.253906 57.507812 61.253906 C 57.453125 61.226562 57.398438 61.210938 57.34375 61.191406 C 56.597656 60.953125 55.886719 61.109375 55.203125 61.617188 C 55.074219 61.714844 54.949219 61.882812 54.808594 61.554688 C 54.464844 60.769531 54.011719 60.574219 53.425781 60.878906 C 53.113281 61.042969 52.851562 61.347656 52.566406 61.59375 C 52.105469 61.996094 51.949219 61.976562 51.535156 61.472656 C 50.996094 60.816406 50.324219 60.816406 49.855469 61.578125 C 49.511719 62.140625 49.144531 62.449219 48.640625 62.394531 C 48.425781 62.375 48.25 62.511719 48.257812 62.890625 C 48.265625 63.253906 48.4375 63.367188 48.65625 63.371094 C 49.257812 63.382812 49.785156 63.160156 50.199219 62.425781 C 50.535156 61.835938 50.828125 61.835938 51.21875 62.351562 C 51.449219 62.65625 51.699219 62.867188 51.917969 62.859375 C 52.375 62.859375 52.6875 62.625 52.988281 62.347656 C 53.210938 62.148438 53.417969 61.898438 53.671875 61.785156 C 53.90625 61.679688 54.109375 61.6875 54.265625 62.046875 C 54.597656 62.824219 54.84375 62.945312 55.398438 62.546875 C 56.023438 62.097656 56.65625 61.902344 57.335938 62.191406 C 57.527344 62.273438 57.683594 62.179688 57.742188 61.890625 " fill-opacity="1" fill-rule="nonzero"/><path fill="#ffffff" d="M 56.832031 65.953125 C 56.832031 65.949219 56.828125 65.949219 56.824219 65.945312 C 56.773438 65.921875 56.722656 65.90625 56.671875 65.886719 C 55.980469 65.648438 55.324219 65.804688 54.691406 66.3125 C 54.570312 66.410156 54.453125 66.578125 54.324219 66.25 C 54.007812 65.464844 53.585938 65.265625 53.042969 65.574219 C 52.753906 65.738281 52.511719 66.042969 52.25 66.289062 C 51.824219 66.691406 51.675781 66.671875 51.292969 66.167969 C 50.792969 65.511719 50.171875 65.507812 49.738281 66.273438 C 49.417969 66.832031 49.078125 67.140625 48.613281 67.089844 C 48.414062 67.070312 48.25 67.207031 48.257812 67.585938 C 48.265625 67.949219 48.421875 68.0625 48.628906 68.066406 C 49.183594 68.078125 49.671875 67.855469 50.054688 67.121094 C 50.367188 66.53125 50.640625 66.53125 51 67.046875 C 51.210938 67.351562 51.445312 67.5625 51.648438 67.554688 C 52.070312 67.554688 52.359375 67.320312 52.640625 67.042969 C 52.847656 66.84375 53.039062 66.59375 53.273438 66.480469 C 53.488281 66.375 53.675781 66.382812 53.820312 66.742188 C 54.128906 67.519531 54.359375 67.640625 54.871094 67.242188 C 55.449219 66.792969 56.035156 66.597656 56.664062 66.886719 C 56.839844 66.96875 56.988281 66.871094 57.042969 66.585938 C 57.070312 66.445312 57.066406 66.324219 57.039062 66.222656 C 57.003906 66.101562 56.933594 66.007812 56.832031 65.953125 " fill-opacity="1" fill-rule="nonzero"/><path fill="#ffffff" d="M 55.695312 41.476562 C 56.015625 41.476562 56.273438 41.738281 56.273438 42.054688 C 56.273438 42.375 56.015625 42.632812 55.695312 42.632812 C 55.375 42.632812 55.117188 42.375 55.117188 42.054688 C 55.117188 41.738281 55.375 41.476562 55.695312 41.476562 Z M 50.0625 44.742188 C 50.039062 45.097656 50.023438 45.402344 50.054688 45.402344 C 52.886719 45.398438 55.714844 45.398438 58.542969 45.398438 L 61.339844 45.398438 C 61.339844 45.378906 61.34375 45.359375 61.34375 45.339844 L 61.34375 45.328125 C 61.363281 44.972656 61.351562 44.625 61.332031 44.277344 L 61.332031 44.269531 C 61.324219 44.117188 61.3125 43.957031 61.304688 43.804688 C 61.300781 43.761719 61.292969 43.722656 61.289062 43.6875 C 61.1875 43.15625 60.675781 42.921875 60.140625 42.9375 C 59.128906 42.964844 58.117188 42.945312 57.101562 42.945312 C 57.097656 42.933594 57.097656 42.917969 57.09375 42.90625 L 57.09375 42.117188 C 57.09375 41.3125 56.441406 40.660156 55.640625 40.660156 C 54.835938 40.660156 54.1875 41.3125 54.1875 42.117188 L 54.1875 42.945312 C 53.226562 42.945312 52.242188 42.964844 51.257812 42.9375 C 51.03125 42.929688 50.789062 42.972656 50.578125 43.0625 C 50.421875 43.132812 50.277344 43.25 50.210938 43.410156 C 50.175781 43.492188 50.164062 43.578125 50.152344 43.664062 C 50.140625 43.738281 50.09375 44.269531 50.0625 44.726562 C 50.058594 44.726562 50.058594 44.726562 50.0625 44.726562 C 50.0625 44.726562 50.0625 44.730469 50.0625 44.730469 L 50.0625 44.742188 " fill-opacity="1" fill-rule="nonzero"/><path fill="#ffffff" d="M 62.121094 59.335938 C 61.0625 60.390625 60.242188 61.210938 59.984375 61.46875 C 59.929688 61.523438 59.898438 61.554688 59.898438 61.554688 L 60.441406 62.066406 C 60.464844 62.042969 60.488281 62.019531 60.511719 61.996094 L 62.117188 60.390625 C 62.800781 59.707031 63.492188 59.019531 64.175781 58.335938 C 65.539062 56.984375 66.894531 55.628906 68.242188 54.285156 L 68.402344 54.125 C 68.402344 54.121094 68.402344 54.117188 68.398438 54.117188 C 68.394531 54.117188 67.890625 53.574219 67.890625 53.574219 C 67.832031 53.632812 67.773438 53.691406 67.714844 53.753906 C 66.726562 54.734375 65.429688 56.03125 64.175781 57.28125 C 63.453125 58.003906 62.746094 58.710938 62.121094 59.335938 " fill-opacity="1" fill-rule="nonzero"/><path fill="#ffffff" d="M 69.496094 55.539062 C 69.558594 55.476562 69.625 55.410156 69.6875 55.351562 L 69.140625 54.804688 C 69.140625 54.800781 69.140625 54.800781 69.136719 54.796875 C 69.074219 54.859375 69.007812 54.921875 68.945312 54.988281 C 67.363281 56.566406 65.773438 58.15625 64.175781 59.75 C 63.492188 60.4375 62.800781 61.125 62.113281 61.8125 C 61.816406 62.109375 61.519531 62.40625 61.21875 62.707031 C 61.1875 62.738281 61.15625 62.769531 61.121094 62.804688 C 61.296875 62.96875 61.492188 63.160156 61.691406 63.351562 C 61.695312 63.351562 61.695312 63.347656 61.699219 63.347656 C 61.722656 63.320312 61.75 63.292969 61.777344 63.265625 C 61.890625 63.15625 62 63.042969 62.109375 62.933594 C 62.800781 62.242188 63.492188 61.550781 64.175781 60.863281 C 65.953125 59.085938 67.71875 57.320312 69.496094 55.539062 " fill-opacity="1" fill-rule="nonzero"/><path fill="#ffffff" d="M 70.390625 56.113281 L 70.226562 56.273438 C 68.199219 58.300781 66.179688 60.308594 64.179688 62.308594 C 63.617188 62.871094 63.058594 63.429688 62.5 63.988281 L 62.472656 64.015625 C 62.636719 64.195312 62.824219 64.402344 62.976562 64.574219 C 62.976562 64.570312 62.980469 64.570312 62.980469 64.566406 C 63 64.550781 63.011719 64.535156 63.027344 64.519531 C 63.414062 64.136719 63.796875 63.753906 64.179688 63.371094 C 66.382812 61.171875 68.574219 58.984375 70.757812 56.804688 C 70.808594 56.75 70.859375 56.703125 70.910156 56.652344 C 70.746094 56.464844 70.554688 56.292969 70.394531 56.117188 C 70.390625 56.113281 70.390625 56.113281 70.390625 56.113281 " fill-opacity="1" fill-rule="nonzero"/><path fill="#ffffff" d="M 63.988281 67.417969 C 63.984375 67.449219 63.980469 67.46875 63.972656 67.484375 C 63.828125 67.777344 63.550781 68.035156 63.328125 68.273438 C 63.023438 68.597656 62.710938 68.914062 62.390625 69.222656 C 62.253906 69.355469 62.109375 69.492188 61.964844 69.625 C 61.84375 69.734375 61.691406 69.914062 61.53125 69.964844 C 61.363281 70.019531 61.121094 69.984375 60.9375 69.992188 C 60.773438 69.992188 60.609375 69.996094 60.445312 70 C 59.777344 70.007812 59.105469 70.015625 58.4375 70.023438 C 57.558594 70.03125 56.675781 70.039062 55.792969 70.046875 C 54.8125 70.054688 53.828125 70.0625 52.847656 70.066406 C 51.878906 70.070312 50.910156 70.078125 49.941406 70.082031 C 49.097656 70.082031 48.257812 70.085938 47.417969 70.085938 L 47.417969 45.402344 L 49.441406 45.402344 C 49.40625 45.113281 49.410156 44.605469 49.53125 43.675781 C 48.464844 43.667969 47.398438 43.671875 46.335938 43.632812 C 45.605469 43.609375 45.328125 43.898438 45.328125 44.628906 C 45.339844 53.378906 45.339844 62.128906 45.328125 70.882812 C 45.328125 71.5625 45.554688 71.867188 46.257812 71.863281 C 52.546875 71.855469 58.832031 71.855469 65.117188 71.867188 C 65.808594 71.867188 66.070312 71.597656 66.070312 70.902344 C 66.070312 69.855469 66.070312 68.808594 66.066406 67.757812 L 66.074219 67.757812 C 66.074219 67.757812 66.074219 65.699219 66.074219 62.804688 L 63.996094 64.429688 C 63.992188 66.238281 63.988281 67.417969 63.988281 67.417969 " fill-opacity="1" fill-rule="nonzero"/><path fill="#ffffff" d="M 61.953125 45.402344 L 63.910156 45.402344 C 64.105469 45.722656 64.035156 45.984375 64.035156 46.230469 C 64.035156 47.183594 64.027344 51.644531 64.015625 56.230469 C 64.671875 55.574219 65.382812 54.863281 66.070312 54.175781 C 66.070312 49.761719 66.070312 45.71875 66.074219 44.648438 C 66.074219 43.96875 65.828125 43.640625 65.144531 43.644531 C 64.066406 43.65625 62.984375 43.664062 61.90625 43.675781 C 61.910156 43.703125 61.910156 43.730469 61.914062 43.761719 C 61.949219 44.265625 61.984375 44.824219 61.953125 45.402344 " fill-opacity="1" fill-rule="nonzero"/><path fill="#ffffff" d="M 59.652344 65.453125 C 59.625 65.460938 59.597656 65.46875 59.566406 65.46875 C 59.550781 65.476562 59.53125 65.476562 59.511719 65.476562 C 59.484375 65.480469 59.453125 65.480469 59.421875 65.480469 C 59.386719 65.480469 59.355469 65.480469 59.328125 65.480469 C 59.316406 65.476562 59.304688 65.480469 59.292969 65.480469 C 59.28125 65.480469 59.269531 65.480469 59.257812 65.484375 C 59.246094 65.484375 59.238281 65.488281 59.222656 65.488281 C 59.148438 65.496094 59.074219 65.527344 59.003906 65.597656 C 58.824219 65.78125 58.085938 66.527344 57.914062 66.710938 C 57.851562 66.78125 57.855469 66.886719 57.929688 66.945312 C 57.980469 66.988281 58.046875 66.996094 58.105469 66.964844 C 58.363281 66.832031 61.285156 65.625 62.105469 65.300781 C 62.183594 65.269531 62.261719 65.238281 62.339844 65.210938 C 62.347656 65.171875 62.351562 65.15625 62.359375 65.121094 C 62.273438 65.035156 62.191406 64.953125 62.105469 64.867188 C 61.992188 64.753906 61.878906 64.640625 61.769531 64.527344 L 61.398438 64.160156 C 61.101562 63.859375 60.804688 63.5625 60.507812 63.265625 C 60.320312 63.078125 60.136719 62.894531 59.949219 62.707031 L 59.652344 62.40625 C 59.535156 62.289062 59.417969 62.171875 59.296875 62.054688 L 59.292969 62.042969 C 59.273438 62.085938 59.257812 62.125 59.238281 62.164062 C 58.890625 62.992188 58.542969 63.824219 58.195312 64.652344 C 58.066406 64.960938 57.9375 65.265625 57.808594 65.574219 C 57.699219 65.835938 57.589844 66.097656 57.480469 66.359375 C 57.457031 66.414062 57.46875 66.476562 57.507812 66.519531 C 57.570312 66.585938 57.671875 66.582031 57.730469 66.519531 C 57.890625 66.34375 58.046875 66.167969 58.203125 65.996094 C 58.210938 65.984375 58.222656 65.976562 58.230469 65.964844 C 58.382812 65.792969 58.539062 65.625 58.699219 65.457031 C 58.832031 65.3125 58.917969 65.195312 58.898438 64.972656 C 58.867188 64.675781 59.007812 64.476562 59.246094 64.402344 C 59.261719 64.398438 59.273438 64.394531 59.289062 64.390625 C 59.304688 64.386719 59.320312 64.382812 59.339844 64.378906 C 59.378906 64.375 59.417969 64.371094 59.457031 64.371094 C 59.476562 64.371094 59.496094 64.371094 59.515625 64.371094 C 59.5625 64.375 59.609375 64.382812 59.652344 64.398438 C 59.867188 64.460938 60.007812 64.644531 60.007812 64.914062 C 60.007812 65.199219 59.878906 65.382812 59.652344 65.453125 " fill-opacity="1" fill-rule="nonzero"/></svg>