<svg xmlns="http://www.w3.org/2000/svg" xmlns:xlink="http://www.w3.org/1999/xlink" width="150" zoomAndPan="magnify" viewBox="0 0 112.5 112.499997" height="150" preserveAspectRatio="xMidYMid meet" version="1.0"><defs><clipPath id="id1"><path d="M 34.257812 33.75 L 78.507812 33.75 L 78.507812 78.75 L 34.257812 78.75 Z M 34.257812 33.75 " clip-rule="nonzero"/></clipPath></defs><g clip-path="url(#id1)"><path fill="#ffffff" d="M 75.535156 37.566406 L 75.535156 36.101562 L 77.011719 36.101562 L 77.011719 37.566406 Z M 77.011719 76.398438 L 75.535156 76.398438 L 75.535156 74.933594 L 77.011719 74.933594 Z M 74.058594 74.199219 L 74.058594 74.933594 L 64.105469 74.933594 C 64.546875 74.753906 64.976562 74.558594 65.410156 74.355469 L 65.75 74.183594 C 66.1875 73.957031 66.621094 73.730469 67.050781 73.453125 C 67.492188 73.1875 67.921875 72.902344 68.339844 72.617188 L 68.730469 72.332031 C 69.015625 72.121094 69.292969 71.90625 69.566406 71.6875 L 69.976562 71.34375 C 70.242188 71.117188 70.507812 70.882812 70.757812 70.609375 L 71.089844 70.296875 C 71.445312 69.941406 71.785156 69.585938 72.109375 69.21875 L 72.195312 69.109375 C 72.492188 68.765625 72.769531 68.417969 73.039062 68.0625 C 73.132812 67.933594 73.222656 67.804688 73.308594 67.671875 C 73.507812 67.390625 73.699219 67.117188 73.882812 66.828125 L 74.152344 66.394531 C 74.335938 66.089844 74.503906 65.785156 74.667969 65.476562 C 74.730469 65.351562 74.804688 65.226562 74.867188 65.101562 C 75.085938 64.660156 75.292969 64.222656 75.476562 63.769531 L 75.476562 73.464844 L 74.796875 73.464844 C 74.390625 73.464844 74.058594 73.792969 74.058594 74.199219 Z M 62.746094 73.871094 L 62.53125 73.9375 C 62.085938 74.089844 61.625 74.214844 61.171875 74.332031 L 60.875 74.40625 C 60.382812 74.519531 59.890625 74.617188 59.402344 74.691406 L 59.324219 74.691406 L 59.324219 73.464844 C 59.324219 73.0625 58.996094 72.734375 58.589844 72.734375 L 55.78125 72.734375 L 55.226562 71.222656 L 64.148438 67.976562 L 65.804688 72.5 L 65.679688 72.566406 C 65.253906 72.800781 64.820312 73.019531 64.375 73.21875 L 64.207031 73.289062 L 64.117188 73.335938 C 63.667969 73.523438 63.21875 73.699219 62.761719 73.863281 Z M 57.84375 75.539062 L 57.84375 77.132812 L 54.894531 77.132812 L 54.894531 74.199219 L 57.84375 74.199219 Z M 55.898438 59.546875 C 56.027344 59.5 56.171875 59.472656 56.3125 59.472656 C 56.972656 59.472656 57.511719 60.011719 57.511719 60.671875 C 57.511719 60.839844 57.472656 61.011719 57.402344 61.164062 C 57.265625 61.453125 57.023438 61.671875 56.722656 61.78125 C 56.429688 61.902344 56.105469 61.902344 55.808594 61.78125 C 55.496094 61.628906 55.269531 61.347656 55.191406 61.011719 C 55 60.410156 55.308594 59.773438 55.898438 59.546875 Z M 53.863281 67.527344 C 53.148438 65.691406 51.527344 64.363281 49.582031 64.019531 L 52.132812 51.402344 L 54.738281 58.492188 C 53.78125 59.1875 53.398438 60.429688 53.804688 61.539062 C 54.050781 62.195312 54.550781 62.722656 55.191406 63.007812 C 55.542969 63.167969 55.925781 63.257812 56.3125 63.253906 C 57.785156 63.261719 58.988281 62.078125 58.996094 60.613281 C 59.003906 59.148438 57.8125 57.957031 56.339844 57.949219 C 56.269531 57.949219 56.195312 57.953125 56.128906 57.957031 L 53.515625 50.867188 L 63.667969 58.910156 C 62.480469 60.4375 62.148438 62.457031 62.78125 64.28125 L 63.636719 66.609375 L 54.71875 69.847656 Z M 54.160156 72.734375 C 53.753906 72.734375 53.421875 73.0625 53.421875 73.464844 L 53.421875 74.703125 C 43.167969 73.328125 35.980469 63.941406 37.367188 53.75 C 38.5 45.449219 45.070312 38.917969 53.421875 37.796875 L 53.421875 39.035156 C 53.421875 39.4375 53.753906 39.765625 54.160156 39.765625 L 58.582031 39.765625 C 58.992188 39.765625 59.316406 39.4375 59.316406 39.035156 L 59.316406 37.796875 C 68.578125 39.101562 75.476562 46.953125 75.535156 56.25 C 75.542969 62.5 72.363281 68.324219 67.089844 71.722656 L 64.140625 63.78125 C 63.605469 62.203125 64.027344 60.460938 65.222656 59.289062 C 65.363281 59.140625 65.429688 58.945312 65.414062 58.742188 C 65.398438 58.539062 65.296875 58.351562 65.132812 58.230469 L 52.566406 48.269531 C 52.292969 47.40625 52.417969 46.460938 52.914062 45.699219 C 53.71875 44.6875 55.589844 44.316406 58.316406 44.621094 C 61.042969 44.929688 62.945312 44.515625 63.964844 43.390625 C 64.585938 42.71875 64.859375 41.796875 64.699219 40.894531 L 63.226562 41.214844 C 63.285156 41.648438 63.15625 42.085938 62.871094 42.417969 C 62.207031 43.148438 60.660156 43.40625 58.449219 43.148438 C 55.136719 42.777344 52.875 43.328125 51.726562 44.785156 C 50.921875 45.9375 50.707031 47.398438 51.136719 48.730469 L 47.988281 64.472656 C 47.910156 64.867188 48.167969 65.253906 48.566406 65.332031 C 48.585938 65.335938 48.605469 65.339844 48.632812 65.34375 C 50.332031 65.410156 51.839844 66.457031 52.480469 68.03125 L 54.210938 72.734375 Z M 37.941406 73.464844 L 37.207031 73.464844 L 37.207031 63.738281 C 39.316406 68.867188 43.453125 72.914062 48.644531 74.933594 L 38.679688 74.933594 L 38.679688 74.199219 C 38.679688 73.792969 38.347656 73.464844 37.941406 73.464844 Z M 37.207031 76.398438 L 35.730469 76.398438 L 35.730469 74.933594 L 37.207031 74.933594 Z M 37.207031 39.035156 L 37.941406 39.035156 C 38.347656 39.035156 38.679688 38.707031 38.679688 38.300781 L 38.679688 37.566406 L 48.625 37.566406 C 43.441406 39.59375 39.316406 43.632812 37.207031 48.753906 Z M 35.730469 36.101562 L 37.207031 36.101562 L 37.207031 37.566406 L 35.730469 37.566406 Z M 54.894531 36.960938 L 54.894531 35.367188 L 57.84375 35.367188 L 57.84375 38.300781 L 54.894531 38.300781 Z M 74.058594 37.566406 L 74.058594 38.300781 C 74.058594 38.707031 74.390625 39.035156 74.796875 39.035156 L 75.535156 39.035156 L 75.535156 48.753906 C 73.421875 43.636719 69.296875 39.59375 64.117188 37.566406 Z M 77.011719 39.035156 L 77.75 39.035156 C 78.15625 39.035156 78.484375 38.707031 78.484375 38.300781 L 78.484375 35.367188 C 78.484375 34.964844 78.15625 34.636719 77.75 34.636719 L 74.796875 34.636719 C 74.390625 34.636719 74.058594 34.964844 74.058594 35.367188 L 74.058594 36.101562 L 59.316406 36.101562 L 59.316406 34.636719 C 59.316406 34.234375 58.992188 33.902344 58.582031 33.902344 L 54.160156 33.902344 C 53.753906 33.902344 53.421875 34.234375 53.421875 34.636719 L 53.421875 36.101562 L 38.679688 36.101562 L 38.679688 35.367188 C 38.679688 34.964844 38.347656 34.636719 37.941406 34.636719 L 34.996094 34.636719 C 34.585938 34.636719 34.257812 34.964844 34.257812 35.367188 L 34.257812 38.300781 C 34.257812 38.707031 34.585938 39.035156 34.996094 39.035156 L 35.730469 39.035156 L 35.730469 73.464844 L 34.996094 73.464844 C 34.585938 73.464844 34.257812 73.792969 34.257812 74.199219 L 34.257812 77.132812 C 34.257812 77.535156 34.585938 77.867188 34.996094 77.867188 L 37.941406 77.867188 C 38.347656 77.867188 38.679688 77.535156 38.679688 77.132812 L 38.679688 76.398438 L 53.421875 76.398438 L 53.421875 77.867188 C 53.421875 78.265625 53.753906 78.597656 54.160156 78.597656 L 58.582031 78.597656 C 58.992188 78.597656 59.316406 78.265625 59.316406 77.867188 L 59.316406 76.398438 L 74.058594 76.398438 L 74.058594 77.132812 C 74.058594 77.535156 74.390625 77.867188 74.796875 77.867188 L 77.75 77.867188 C 78.15625 77.867188 78.484375 77.535156 78.484375 77.132812 L 78.484375 74.199219 C 78.484375 73.792969 78.15625 73.464844 77.75 73.464844 L 77.011719 73.464844 L 77.011719 39.035156 " fill-opacity="1" fill-rule="nonzero"/></g></svg>