<svg xmlns="http://www.w3.org/2000/svg" xmlns:xlink="http://www.w3.org/1999/xlink" width="150" zoomAndPan="magnify" viewBox="0 0 112.5 112.499997" height="150" preserveAspectRatio="xMidYMid meet" version="1.0"><defs><clipPath id="id1"><path d="M 33.75 34.117188 L 78.75 34.117188 L 78.75 78.367188 L 33.75 78.367188 Z M 33.75 34.117188 " clip-rule="nonzero"/></clipPath></defs><g clip-path="url(#id1)"><path fill="#000000" d="M 73.882812 34.117188 L 38.617188 34.117188 C 35.945312 34.117188 33.769531 36.292969 33.769531 38.960938 L 33.769531 42.613281 C 33.769531 45.285156 35.945312 47.460938 38.617188 47.460938 L 55.546875 47.460938 L 55.546875 49.566406 L 38.617188 49.566406 C 35.945312 49.566406 33.769531 51.746094 33.769531 54.414062 L 33.769531 58.066406 C 33.769531 60.734375 35.945312 62.914062 38.617188 62.914062 L 55.546875 62.914062 L 55.546875 65.019531 L 38.617188 65.019531 C 35.945312 65.019531 33.769531 67.199219 33.769531 69.867188 L 33.769531 73.519531 C 33.769531 76.1875 35.945312 78.367188 38.617188 78.367188 L 73.882812 78.367188 C 76.554688 78.367188 78.730469 76.1875 78.730469 73.519531 L 78.730469 69.867188 C 78.730469 67.199219 76.554688 65.019531 73.882812 65.019531 L 56.953125 65.019531 L 56.953125 62.914062 L 73.882812 62.914062 C 76.554688 62.914062 78.730469 60.734375 78.730469 58.066406 L 78.730469 54.414062 C 78.730469 51.746094 76.554688 49.566406 73.882812 49.566406 L 56.953125 49.566406 L 56.953125 47.460938 L 73.882812 47.460938 C 76.554688 47.460938 78.730469 45.285156 78.730469 42.613281 L 78.730469 38.960938 C 78.730469 36.292969 76.554688 34.117188 73.882812 34.117188 Z M 77.328125 69.867188 L 77.328125 73.519531 C 77.328125 75.414062 75.78125 76.960938 73.882812 76.960938 L 38.617188 76.960938 C 36.71875 76.960938 35.171875 75.414062 35.171875 73.519531 L 35.171875 69.867188 C 35.171875 67.96875 36.71875 66.425781 38.617188 66.425781 L 73.882812 66.425781 C 75.78125 66.425781 77.328125 67.96875 77.328125 69.867188 Z M 77.328125 54.414062 L 77.328125 58.066406 C 77.328125 59.964844 75.78125 61.507812 73.882812 61.507812 L 38.617188 61.507812 C 36.71875 61.507812 35.171875 59.964844 35.171875 58.066406 L 35.171875 54.414062 C 35.171875 52.519531 36.71875 50.972656 38.617188 50.972656 L 73.882812 50.972656 C 75.78125 50.972656 77.328125 52.519531 77.328125 54.414062 Z M 77.328125 42.613281 C 77.328125 44.511719 75.78125 46.054688 73.882812 46.054688 L 38.617188 46.054688 C 36.71875 46.054688 35.171875 44.511719 35.171875 42.613281 L 35.171875 38.960938 C 35.171875 37.066406 36.71875 35.519531 38.617188 35.519531 L 73.882812 35.519531 C 75.78125 35.519531 77.328125 37.066406 77.328125 38.960938 Z M 77.328125 42.613281 " fill-opacity="1" fill-rule="nonzero"/></g><path fill="#000000" d="M 52.035156 38.328125 L 40.089844 38.328125 C 38.898438 38.328125 37.984375 39.242188 37.984375 40.4375 L 37.984375 41.140625 C 37.984375 42.261719 38.898438 43.246094 40.089844 43.246094 L 52.035156 43.246094 C 53.160156 43.246094 54.140625 42.332031 54.140625 41.140625 L 54.140625 40.4375 C 54.140625 39.242188 53.230469 38.328125 52.035156 38.328125 Z M 52.738281 41.140625 C 52.738281 41.492188 52.457031 41.84375 52.035156 41.84375 L 40.089844 41.84375 C 39.738281 41.84375 39.386719 41.5625 39.386719 41.140625 L 39.386719 40.4375 C 39.386719 40.085938 39.667969 39.734375 40.089844 39.734375 L 52.035156 39.734375 C 52.386719 39.734375 52.738281 40.015625 52.738281 40.4375 Z M 52.738281 41.140625 " fill-opacity="1" fill-rule="nonzero"/><path fill="#000000" d="M 71.425781 38.328125 C 70.089844 38.328125 68.964844 39.453125 68.964844 40.789062 C 68.964844 42.121094 70.089844 43.246094 71.425781 43.246094 C 72.761719 43.246094 73.882812 42.121094 73.882812 40.789062 C 73.882812 39.453125 72.761719 38.328125 71.425781 38.328125 Z M 71.425781 41.84375 C 70.863281 41.84375 70.371094 41.351562 70.371094 40.789062 C 70.371094 40.226562 70.863281 39.734375 71.425781 39.734375 C 71.988281 39.734375 72.480469 40.226562 72.480469 40.789062 C 72.480469 41.351562 71.988281 41.84375 71.425781 41.84375 Z M 71.425781 41.84375 " fill-opacity="1" fill-rule="nonzero"/><path fill="#000000" d="M 60.886719 38.960938 C 59.902344 38.960938 59.058594 39.734375 59.058594 40.789062 C 59.058594 41.84375 59.832031 42.613281 60.886719 42.613281 C 61.871094 42.613281 62.714844 41.84375 62.714844 40.789062 C 62.714844 39.734375 61.871094 38.960938 60.886719 38.960938 Z M 60.886719 41.140625 C 60.675781 41.140625 60.464844 41 60.464844 40.789062 C 60.464844 40.578125 60.605469 40.367188 60.886719 40.367188 C 61.097656 40.367188 61.308594 40.507812 61.308594 40.789062 C 61.308594 41.070312 61.097656 41.140625 60.886719 41.140625 Z M 60.886719 41.140625 " fill-opacity="1" fill-rule="nonzero"/><path fill="#000000" d="M 65.804688 38.960938 C 64.820312 38.960938 63.976562 39.734375 63.976562 40.789062 C 63.976562 41.84375 64.75 42.613281 65.804688 42.613281 C 66.789062 42.613281 67.632812 41.84375 67.632812 40.789062 C 67.632812 39.734375 66.789062 38.960938 65.804688 38.960938 Z M 65.804688 41.140625 C 65.59375 41.140625 65.382812 41 65.382812 40.71875 C 65.382812 40.4375 65.523438 40.296875 65.804688 40.296875 C 66.015625 40.296875 66.226562 40.4375 66.226562 40.71875 C 66.226562 41 66.015625 41.140625 65.804688 41.140625 Z M 65.804688 41.140625 " fill-opacity="1" fill-rule="nonzero"/><path fill="#000000" d="M 52.035156 53.78125 L 40.089844 53.78125 C 38.96875 53.78125 37.984375 54.695312 37.984375 55.890625 L 37.984375 56.59375 C 37.984375 57.714844 38.898438 58.699219 40.089844 58.699219 L 52.035156 58.699219 C 53.160156 58.699219 54.140625 57.785156 54.140625 56.59375 L 54.140625 55.890625 C 54.140625 54.695312 53.230469 53.78125 52.035156 53.78125 Z M 52.738281 56.59375 C 52.738281 56.941406 52.457031 57.292969 52.035156 57.292969 L 40.089844 57.292969 C 39.738281 57.292969 39.386719 57.011719 39.386719 56.59375 L 39.386719 55.890625 C 39.386719 55.539062 39.667969 55.1875 40.089844 55.1875 L 52.035156 55.1875 C 52.386719 55.1875 52.738281 55.46875 52.738281 55.890625 Z M 52.738281 56.59375 " fill-opacity="1" fill-rule="nonzero"/><path fill="#000000" d="M 71.425781 58.628906 C 72.761719 58.628906 73.882812 57.503906 73.882812 56.171875 C 73.882812 54.835938 72.761719 53.710938 71.425781 53.710938 C 70.089844 53.710938 68.964844 54.835938 68.964844 56.171875 C 68.964844 57.503906 70.089844 58.628906 71.425781 58.628906 Z M 71.425781 55.117188 C 71.988281 55.117188 72.480469 55.609375 72.480469 56.171875 C 72.480469 56.730469 71.988281 57.222656 71.425781 57.222656 C 70.863281 57.222656 70.371094 56.730469 70.371094 56.171875 C 70.371094 55.609375 70.863281 55.117188 71.425781 55.117188 Z M 71.425781 55.117188 " fill-opacity="1" fill-rule="nonzero"/><path fill="#000000" d="M 60.886719 57.996094 C 61.871094 57.996094 62.714844 57.222656 62.714844 56.171875 C 62.714844 55.1875 61.941406 54.34375 60.886719 54.34375 C 59.902344 54.34375 59.058594 55.117188 59.058594 56.171875 C 59.058594 57.222656 59.902344 57.996094 60.886719 57.996094 Z M 60.886719 55.820312 C 61.097656 55.820312 61.308594 55.960938 61.308594 56.242188 C 61.308594 56.453125 61.167969 56.660156 60.886719 56.660156 C 60.675781 56.660156 60.464844 56.523438 60.464844 56.242188 C 60.464844 55.960938 60.675781 55.820312 60.886719 55.820312 Z M 60.886719 55.820312 " fill-opacity="1" fill-rule="nonzero"/><path fill="#000000" d="M 65.804688 57.996094 C 66.789062 57.996094 67.632812 57.222656 67.632812 56.171875 C 67.632812 55.1875 66.859375 54.34375 65.804688 54.34375 C 64.820312 54.34375 63.976562 55.117188 63.976562 56.171875 C 64.046875 57.222656 64.820312 57.996094 65.804688 57.996094 Z M 65.804688 55.820312 C 66.015625 55.820312 66.226562 55.960938 66.226562 56.242188 C 66.226562 56.453125 66.085938 56.660156 65.804688 56.660156 C 65.59375 56.660156 65.382812 56.523438 65.382812 56.242188 C 65.453125 55.960938 65.59375 55.820312 65.804688 55.820312 Z M 65.804688 55.820312 " fill-opacity="1" fill-rule="nonzero"/><path fill="#000000" d="M 52.035156 69.234375 L 40.089844 69.234375 C 38.96875 69.234375 37.984375 70.148438 37.984375 71.34375 L 37.984375 72.042969 C 37.984375 73.167969 38.898438 74.152344 40.089844 74.152344 L 52.035156 74.152344 C 53.160156 74.152344 54.140625 73.238281 54.140625 72.042969 L 54.140625 71.34375 C 54.140625 70.148438 53.230469 69.234375 52.035156 69.234375 Z M 52.738281 72.042969 C 52.738281 72.394531 52.457031 72.746094 52.035156 72.746094 L 40.089844 72.746094 C 39.738281 72.746094 39.386719 72.464844 39.386719 72.042969 L 39.386719 71.34375 C 39.386719 70.992188 39.667969 70.640625 40.089844 70.640625 L 52.035156 70.640625 C 52.386719 70.640625 52.738281 70.921875 52.738281 71.34375 Z M 52.738281 72.042969 " fill-opacity="1" fill-rule="nonzero"/><path fill="#000000" d="M 71.425781 74.152344 C 72.761719 74.152344 73.882812 73.027344 73.882812 71.691406 C 73.882812 70.359375 72.761719 69.234375 71.425781 69.234375 C 70.089844 69.234375 68.964844 70.359375 68.964844 71.691406 C 68.964844 73.027344 70.089844 74.152344 71.425781 74.152344 Z M 71.425781 70.640625 C 71.988281 70.640625 72.480469 71.132812 72.480469 71.691406 C 72.480469 72.253906 71.988281 72.746094 71.425781 72.746094 C 70.863281 72.746094 70.371094 72.253906 70.371094 71.691406 C 70.371094 71.132812 70.863281 70.640625 71.425781 70.640625 Z M 71.425781 70.640625 " fill-opacity="1" fill-rule="nonzero"/><path fill="#000000" d="M 60.886719 73.519531 C 61.871094 73.519531 62.714844 72.746094 62.714844 71.691406 C 62.714844 70.640625 61.871094 69.9375 60.886719 69.9375 C 59.902344 69.9375 59.058594 70.710938 59.058594 71.761719 C 59.058594 72.816406 59.902344 73.519531 60.886719 73.519531 Z M 60.886719 71.34375 C 61.097656 71.34375 61.308594 71.480469 61.308594 71.761719 C 61.308594 72.042969 61.167969 72.183594 60.886719 72.183594 C 60.675781 72.183594 60.464844 72.042969 60.464844 71.761719 C 60.464844 71.480469 60.675781 71.34375 60.886719 71.34375 Z M 60.886719 71.34375 " fill-opacity="1" fill-rule="nonzero"/><path fill="#000000" d="M 65.804688 73.519531 C 66.789062 73.519531 67.632812 72.746094 67.632812 71.691406 C 67.632812 70.640625 66.789062 69.9375 65.804688 69.9375 C 64.820312 69.9375 63.976562 70.710938 63.976562 71.761719 C 63.976562 72.816406 64.820312 73.519531 65.804688 73.519531 Z M 65.804688 71.34375 C 66.015625 71.34375 66.226562 71.480469 66.226562 71.761719 C 66.226562 72.042969 66.085938 72.183594 65.804688 72.183594 C 65.59375 72.183594 65.382812 72.042969 65.382812 71.761719 C 65.382812 71.480469 65.59375 71.34375 65.804688 71.34375 Z M 65.804688 71.34375 " fill-opacity="1" fill-rule="nonzero"/></svg>